<svg transform="scale(1)" version="1.1" id="Layer_1" xmlns="http://www.w3.org/2000/svg" xmlns:xlink="http://www.w3.org/1999/xlink" x="0px" y="0px" viewBox="0 0 500 500" xml:space="preserve" class="show_show__wrapper__graphic__5Waiy "><title>React</title><style type="text/css">
	.st0{fill:#B095FE;}
	.st1{opacity:0.32;fill:url(#SVGID_1_);enable-background:new    ;}
	.st2{fill:#DD5E57;}
	.st3{fill:#68E1FD;}
	.st4{fill:#007F68;}
	.st5{opacity:0.32;fill:url(#SVGID_00000078010412486149965050000003406247356277218468_);enable-background:new    ;}
	.st6{fill:#5A46AF;}
	.st7{fill:#C9745D;}
	.st8{fill:#FEC5B2;}
	.st9{fill:#FFFFFF;}
	.st10{fill:#F15A24;}
	.st11{fill:#F8C401;}
</style><path class="st0" id="field" d="M243,414.7L22,284.1c-7-4-13.1-10.4-6.2-14.7l221.8-127.8c3.3-2.1,8.4-3.4,11.8-1.4l232,134.6
	c7,4.1,8.3,15.5,1.3,19.6L272.1,414.5C263.1,419.7,252.1,419.7,243,414.7z"></path><g id="plant"><linearGradient id="SVGID_1_" gradientUnits="userSpaceOnUse" x1="395.4408" y1="205.1487" x2="340.8108" y2="170.1288" gradientTransform="matrix(1 0 0 -1 0 502)"><stop offset="0" style="stop-color: rgb(90, 70, 175);"></stop><stop offset="1" style="stop-color: rgb(176, 149, 254);"></stop></linearGradient><polyline class="st1" points="430.8,291.3 343.2,341 320,328.1 406.1,280.2 	"></polyline><path class="st2" d="M438.5,236.9c-0.1-0.5-0.3-1-0.6-1.4c-0.6-0.7-1.2-1.3-2-1.7c-10.2-6.9-24.3-8.8-35-2.1
		c-2.5,1.5-6.1,5-4.7,8.3c0.8,1.9,3.4,3,5.2,3.8c5.8,2.5,12.2,3.8,18.4,4.8c2.3,0.4,4.6,0.8,6.9,1c3.2,0.3,6.3-1.1,8.3-3.6
		C436.7,244,439.2,239.9,438.5,236.9z"></path><path class="st3" d="M395.9,238.5c0,0,9.3,8.4,25.3,7.2s17.3-8.8,17.3-8.8s-4.2,53.1-6.3,54.1s-10.4,4.9-14.3,5.2
		s-16.5-4.7-16.8-6.1S395.9,238.5,395.9,238.5z"></path><path class="st4" d="M398.9,161.1c-0.5-1-2-0.1-1.5,0.9c11,22.1,13.1,47,15.1,71.2c0.1,1.1,1.8,1.1,1.8,0
		C412.2,208.7,410,183.5,398.9,161.1z"></path><path class="st4" d="M397.5,161.3c0,0,3.1,11.5-0.1,17.2s-5.8,6.9-2,14.1s13.9,8.1,14.6,13.6S405.1,171,397.5,161.3z"></path><path class="st4" d="M432.5,182c-8.4,17.7-13.2,36.9-13.9,56.5c0,1.4,2.1,1.4,2.1,0c0.7-19.2,5.4-38.1,13.6-55.4
		C435,181.9,433.1,180.8,432.5,182z"></path><path class="st4" d="M434,187.6c0-1.1-0.3-3.4-0.1-5.4c-0.4,0.3-0.8,0.5-1.2,0.8c-4.2,10.1-10.4,33.9-12.3,41.2
		c2.5-5.5,12.9-6.2,16-14.1c1.3-3.3,1.4-7,0.2-10.4C435,195.9,434.2,191.8,434,187.6z"></path></g><g id="cc"><linearGradient id="SVGID_00000062191258261499402500000016719541600702784136_" gradientUnits="userSpaceOnUse" x1="240.995" y1="140.5225" x2="227.545" y2="114.0725" gradientTransform="matrix(1 0 0 -1 0 502)"><stop offset="0" style="stop-color: rgb(90, 70, 175);"></stop><stop offset="1" style="stop-color: rgb(176, 149, 254);"></stop></linearGradient><path d="
		M194.9,382.6c2.3,1.3,34.9,20.2,37.1,21.7l71-43.9L240.2,335l-65.5,36.1C181.1,375.5,188.2,378.6,194.9,382.6z" style="opacity: 0.32; fill: url(&quot;#SVGID_00000062191258261499402500000016719541600702784136_&quot;);"></path><ellipse class="st6" cx="261.9" cy="352.6" rx="44.8" ry="18.3"></ellipse><rect class="st7" x="241.6" y="221.4" width="41.9" height="71.5"></rect><path class="st8" d="M238.4,318.4c0.4,0.7,0.5,1.4,0.5,2.2l0.3,47.4c13.2,6.7,29.9-5.5,43.5-11.4c-0.4-13.5-1.4-46.7-1-50.9
		c0.6-5.3,22-56,20.3-64s-55.9-82.5-65.5-79.3s1.1,12.7,1.1,21.7s26,42.8,32.2,52.9s2.3,31.2-10.7,30.7s-14.1-44.4-25.1-43.9
		s-0.8,20.6-4.2,47.6C227,294.9,236.1,314,238.4,318.4z"></path><path class="st3" d="M146.6,87.6L132.7,165c-1,5.5,1,11.1,5.3,14.7l95.7,81.1c4.8,4,11.9,3.5,15.9-1.3c1.3-1.5,2.2-3.4,2.5-5.3
		l11.7-65.5c1.3-7.5-1.4-15.2-7.1-20.2l-98.2-85.2c-3-2.6-7.6-2.3-10.3,0.7C147.4,85.1,146.8,86.3,146.6,87.6z"></path><path class="st9" d="M152.9,96c0.2,0.2,0.5,0.3,0.7,0.5c0.5,0.5,1,1,1.3,1.7c0.3,0.5,0.5,1.1,0.5,1.8l-1.1-1c0-0.3-0.1-0.5-0.3-0.8
		c-0.2-0.3-0.3-0.5-0.6-0.7c-0.1-0.1-0.2-0.2-0.3-0.2c-0.2-0.1-0.3-0.1-0.5-0.1c-0.2,0-0.4,0.2-0.5,0.6c-0.1,0.4,0,0.8,0.1,1.1
		c0.1,0.4,0.4,0.7,0.7,1c0.1,0.1,0.2,0.2,0.3,0.2c0.1,0.1,0.2,0.1,0.3,0.1c0.2,0.1,0.3,0,0.5-0.1l1.1,1c-0.2,0.4-0.6,0.6-0.9,0.5
		c-0.3,0-0.5-0.1-0.8-0.3c-0.3-0.2-0.5-0.3-0.7-0.5c-0.4-0.4-0.8-0.8-1.1-1.3c-0.3-0.4-0.5-0.9-0.6-1.4c-0.1-0.4-0.1-0.9,0-1.3
		c0-0.3,0.2-0.6,0.5-0.9c0.3-0.2,0.6-0.2,0.9-0.1C152.6,95.8,152.7,95.9,152.9,96z"></path><polygon class="st9" points="160.1,102.5 162.9,105 162.7,105.8 161,104.3 160.9,105.1 162.3,106.4 162.2,107.2 160.7,105.9 
		160.5,106.8 162.2,108.3 162,109.1 159.3,106.7 	"></polygon><polygon class="st9" points="145.6,121.2 147.5,122.9 146.4,128.4 145.4,127.5 146.3,122.8 145.5,122 	"></polygon><path class="st9" d="M150.7,125.7c0.2,0.1,0.5,0.3,0.7,0.5c0.5,0.5,0.9,1,1.2,1.6c0.2,0.5,0.3,1.1,0.2,1.6
		c-0.1,0.4-0.3,0.7-0.6,0.9c-0.4,0.2-0.8,0.3-1.2,0.2c-0.5,0-1-0.1-1.4-0.2l2.8,2.5l-0.1,0.7l-4-3.6l0.1-0.7
		c0.8,0.2,1.7,0.3,2.5,0.2c0.6-0.1,1-0.3,1.1-0.8c0.1-0.3,0-0.6-0.1-0.9c-0.1-0.3-0.4-0.7-0.6-0.9c-0.1-0.1-0.2-0.2-0.3-0.2
		c-0.1-0.1-0.3-0.1-0.5-0.1c-0.2,0-0.4,0.3-0.5,0.6l-0.9-0.8c0.2-0.6,0.5-0.9,0.9-0.9C150.1,125.4,150.4,125.5,150.7,125.7z"></path><g><polygon class="st10" points="154.5,120.6 154.8,119 155.2,119.3 154.8,120.9 154.7,120.8 		"></polygon><polygon class="st11" points="148.3,107.8 148.4,107.8 148.4,107.8 148.4,107.8 148.4,107.8 		"></polygon><polygon class="st11" points="158.2,118.8 160,120.3 159,124.7 157.1,123 157.3,123.2 		"></polygon><polygon class="st10" points="158,118.1 160.4,120.3 159.8,123.1 159.7,123.4 159.4,125 159.1,124.7 159,124.7 160,120.3 
			158.2,118.8 157.3,123.2 157.1,123 157,122.9 157.3,121.2 157.4,120.9 		"></polygon><path class="st11" d="M157.1,123l1.9,1.7l-10.1-9.1c-0.9-0.8-1.5-2-1.5-3.3l7.4,6.7l-0.3,1.6l0.2,0.2l0.2,0.2l0.3-1.6l2.1,1.9
			l-0.3,1.6L157.1,123z"></path><polygon class="st10" points="154.9,118.7 155.2,119 157.4,120.9 157.3,121.2 155.2,119.3 154.8,119 147.4,112.3 147.4,112.2 
			147.5,112 		"></polygon><path class="st11" d="M159.4,125l0.3-1.6l2.9,2.6c-0.2,0.7-0.9,0.8-1.7,0.3c-0.2-0.1-0.4-0.2-0.5-0.4l-1.4-1.2L159.4,125z"></path><polygon class="st10" points="159.8,123.1 162.7,125.7 162.6,125.8 162.6,125.9 162.6,126 159.7,123.4 		"></polygon><polygon class="st11" points="155.8,114.7 154.9,118.7 147.5,112 148.4,107.8 148.3,108 		"></polygon><path class="st11" d="M148.4,107.7v0.2l0.4-1.9c0.2-0.8,0.9-1,1.7-0.5c0.2,0.1,0.4,0.2,0.5,0.4l5.8,5.2l-0.2-0.2l-0.2,1l-7.5-3.7
			L148.4,107.7z"></path><polygon class="st10" points="148.4,107.7 148.8,108.1 155.8,114.4 155.8,114.7 148.3,108 148.4,107.8 		"></polygon><polygon class="st11" points="148.8,108.1 156.4,111.8 155.8,114.4 		"></polygon><polygon class="st10" points="156.7,111 156.9,111.2 156.7,112 156.2,114.7 156.1,115 155.2,119 154.9,118.7 155.8,114.7 
			155.8,114.4 156.4,111.8 156.6,110.8 		"></polygon><polygon class="st11" points="156.2,114.7 156.7,112 159,113.1 158.3,116.6 		"></polygon><polygon class="st11" points="159,113.1 156.7,112 156.9,111.2 159.2,113.2 159,113.1 		"></polygon><polygon class="st11" points="159.2,113.2 159.2,113.2 159.2,113.2 159.2,113.2 159.2,113.2 		"></polygon><polygon class="st10" points="159.2,113.2 159.4,113.4 158.6,117.2 156.1,115 156.2,114.7 158.3,116.6 159,113.1 159,113.1 		"></polygon><path class="st11" d="M162.5,116.2c1,0.8,1.6,2.1,1.5,3.4l-1.3,6.2v-0.2l-2.9-2.6l0.6-2.8l-2.4-2.2l-0.6,2.8l-2.1-1.9l0.8-4
			l2.5,2.2l0.8-3.8l-0.2-0.2L162.5,116.2z"></path></g><path class="st9" d="M159.3,102.5c0.1,0.3,0.1,0.6,0,0.8c0,0.2-0.2,0.5-0.4,0.5c-0.3,0-0.6-0.1-0.8-0.2H158l0.7,2.6l-1.2-1
		l-0.6-2.4l-0.2-0.2l-0.3,1.6l-1.1-0.9l0.9-4.1l1.8,1.5c0.3,0.3,0.6,0.6,0.8,1C159,101.9,159.2,102.2,159.3,102.5z M158.2,102.4
		c0-0.2,0-0.4-0.1-0.5c-0.1-0.2-0.2-0.4-0.4-0.6l-0.6-0.6l-0.2,1l0.6,0.6c0.1,0.1,0.2,0.1,0.3,0.2c0.1,0,0.1,0.1,0.2,0.1
		C158.1,102.6,158.2,102.6,158.2,102.4"></path><polygon class="st9" points="169.5,110.9 172.9,114 172.7,114.8 171.6,113.7 170.9,117.1 169.8,116.1 170.5,112.8 169.3,111.7 	"></polygon><polygon class="st9" points="168,109.6 169,110.5 168.2,114.7 167.1,113.7 	"></polygon><path class="st9" d="M166.9,109.8c0.1,0.4,0.1,0.9,0.1,1.3c0,0.3-0.2,0.6-0.5,0.8c-0.3,0.2-0.7,0.2-1,0c-0.2-0.1-0.3-0.1-0.5-0.2
		c-0.3-0.2-0.5-0.4-0.8-0.6l-1.6-1.5l0.9-4.1l1.6,1.5c0.4,0.4,0.8,0.8,1.2,1.3C166.5,108.7,166.8,109.2,166.9,109.8z M165.9,110.1
		c0.1-0.4,0-0.8-0.2-1.2c-0.2-0.4-0.5-0.8-0.9-1.2l-0.5-0.4l-0.5,2.4l0.5,0.4c0.2,0.1,0.3,0.3,0.5,0.4c0.2,0.1,0.3,0.2,0.5,0.2
		C165.7,110.7,165.8,110.5,165.9,110.1"></path><path class="st9" d="M175.9,116.8c0.2,0.1,0.5,0.3,0.7,0.5c0.5,0.5,1,1,1.3,1.7c0.3,0.5,0.5,1.2,0.5,1.8l-1.1-1
		c0-0.3-0.1-0.6-0.3-0.8c-0.2-0.3-0.3-0.5-0.6-0.7c-0.1-0.1-0.2-0.2-0.3-0.2c-0.2-0.1-0.3-0.2-0.5-0.1c-0.2,0-0.4,0.2-0.5,0.6
		c-0.1,0.4,0,0.8,0.1,1.1c0.1,0.4,0.4,0.7,0.7,1c0.1,0.1,0.2,0.2,0.3,0.2c0.1,0.1,0.2,0.1,0.3,0.1c0.2,0.1,0.3,0,0.5-0.1l1.1,1
		c-0.2,0.4-0.6,0.6-1,0.5c-0.3,0-0.5-0.1-0.8-0.3c-0.3-0.2-0.5-0.3-0.7-0.5c-0.4-0.4-0.8-0.8-1.1-1.3c-0.3-0.4-0.5-0.9-0.6-1.4
		c-0.1-0.4-0.1-0.9,0-1.3c0-0.3,0.2-0.7,0.5-0.9c0.3-0.2,0.6-0.2,0.9-0.1C175.6,116.6,175.8,116.6,175.9,116.8z"></path><path class="st9" d="M181.8,122l0.7,5.6l-1.1-1l-0.1-1l-1.6-1.6l-0.4,0.5l-1.1-1l2.5-2.7L181.8,122z M180.1,123.6l1.1,1l-0.2-2
		L180.1,123.6"></path><path class="st9" d="M186.9,127.3c0.1,0.3,0.1,0.6,0,0.8c0,0.2-0.2,0.5-0.4,0.5c-0.3,0-0.6-0.1-0.8-0.2h-0.1l0.7,2.6l-1.2-1.1
		l-0.6-2.4l-0.2-0.2l-0.3,1.6l-1.1-0.9l0.9-4.1l1.8,1.6c0.3,0.3,0.6,0.6,0.8,1C186.6,126.7,186.7,127,186.9,127.3z M185.8,127.2
		c0-0.2,0-0.4-0.1-0.5c-0.1-0.2-0.3-0.4-0.4-0.6l-0.7-0.6l-0.2,1l0.7,0.6c0.1,0.1,0.2,0.1,0.3,0.2c0.1,0,0.1,0.1,0.2,0.1
		C185.7,127.4,185.8,127.3,185.8,127.2"></path><path class="st9" d="M191.1,131.6c0.1,0.4,0.1,0.9,0,1.3c0,0.3-0.2,0.6-0.5,0.8c-0.3,0.1-0.6,0.1-0.9,0c-0.2-0.1-0.3-0.1-0.5-0.2
		c-0.3-0.2-0.5-0.4-0.8-0.6l-1.6-1.5l0.9-4.1l1.6,1.5c0.4,0.4,0.8,0.8,1.2,1.4C190.8,130.5,191,131,191.1,131.6z M190.1,131.9
		c0.1-0.4,0-0.8-0.2-1.2c-0.2-0.4-0.5-0.8-0.9-1.2l-0.5-0.5l-0.5,2.4l0.5,0.4c0.2,0.1,0.3,0.3,0.5,0.4c0.2,0.1,0.3,0.2,0.5,0.2
		C189.9,132.5,190.1,132.3,190.1,131.9"></path><path class="st9" d="M156.1,130.5c0.3,0.2,0.5,0.4,0.7,0.6c0.4,0.3,0.7,0.7,1,1.1c0.2,0.3,0.4,0.7,0.5,1.1c0.1,0.3,0.1,0.6,0.1,0.9
		c-0.1,0.4-0.2,0.6-0.5,0.6c-0.3,0-0.5,0-0.7-0.2l-0.2-0.2l0,0c0.3,0.4,0.6,0.9,0.8,1.4c0.2,0.4,0.2,0.8,0.1,1.2
		c-0.1,0.5-0.3,0.7-0.7,0.7c-0.3,0-0.5-0.1-0.8-0.3c-0.3-0.2-0.5-0.4-0.7-0.6c-0.6-0.5-1.1-1.1-1.4-1.8c-0.3-0.6-0.4-1.3-0.4-1.9
		l0.9,0.9c0,0.4,0,0.7,0.2,1.1c0.2,0.4,0.4,0.7,0.8,1c0.1,0.1,0.2,0.2,0.4,0.3c0.1,0.1,0.3,0.1,0.4,0.1c0.2,0,0.3-0.1,0.4-0.4
		c0-0.3,0-0.7-0.2-1c-0.3-0.5-0.6-0.9-1-1.2l-0.2-0.2l0.2-0.7l0.2,0.2c0.2,0.2,0.4,0.4,0.7,0.5c0.5,0.3,0.8,0.2,0.8-0.2
		c0-0.3,0-0.6-0.1-0.8c-0.2-0.3-0.4-0.6-0.6-0.8l-0.3-0.2c-0.1-0.1-0.3-0.1-0.4-0.1c-0.2,0-0.4,0.1-0.5,0.4l-0.9-0.8
		c0.1-0.5,0.4-0.8,0.8-0.8C155.7,130.3,155.9,130.4,156.1,130.5z"></path><path class="st9" d="M164.3,137.9l-0.8,3.6l0.8,0.7l-0.2,0.8l-0.8-0.7l-0.2,1.2l-1-0.8l0.2-1.2l-2.9-2.6l0.2-0.8l3.7-1L164.3,137.9
		z M162.6,140.7l0.5-2.5l-2.6,0.7L162.6,140.7"></path><path class="st9" d="M172.4,145.1l3.7,3.4l-0.2,0.8l-2.9-2.6l-0.4,1.6c0.2,0,0.4,0,0.6,0.1c0.1,0,0.2,0.1,0.2,0.1
		c0.2,0.1,0.4,0.3,0.6,0.4c0.4,0.3,0.7,0.7,1,1.1c0.2,0.4,0.4,0.8,0.5,1.2c0.1,0.4,0.1,0.7,0,1.1c-0.1,0.6-0.4,0.9-0.8,0.9
		c-0.3,0-0.6-0.1-0.9-0.3c-0.3-0.2-0.5-0.3-0.7-0.5c-0.6-0.5-1-1.1-1.4-1.8c-0.3-0.5-0.4-1.2-0.4-1.8l0.9,0.8c0,0.3,0.1,0.7,0.2,1
		c0.2,0.3,0.4,0.7,0.7,0.9c0.1,0.1,0.3,0.2,0.4,0.3c0.1,0.1,0.3,0.2,0.5,0.1c0.2,0,0.4-0.2,0.5-0.6c0.1-0.3,0-0.7-0.1-1
		c-0.2-0.4-0.4-0.7-0.8-1c-0.1-0.1-0.3-0.2-0.4-0.3c-0.1-0.1-0.2-0.1-0.3-0.1c-0.2-0.1-0.3-0.1-0.5,0l-0.9-0.8L172.4,145.1z"></path><path class="st9" d="M181.8,155.5l-0.9-0.8c0-0.7-0.3-1.4-0.8-1.8c-0.1-0.1-0.2-0.2-0.4-0.3c-0.2-0.2-0.4-0.2-0.7-0.1
		c-0.3,0.1-0.5,0.5-0.6,1.2l-0.1,0.3c0.2-0.2,0.4-0.3,0.7-0.2c0.2,0.1,0.3,0.1,0.5,0.2c0.2,0.1,0.4,0.3,0.6,0.4
		c0.5,0.5,1,1.1,1.2,1.7c0.2,0.6,0.3,1.2,0.2,1.8c0,0.3-0.2,0.6-0.4,0.8c-0.2,0.2-0.5,0.2-0.8,0.1c-0.2-0.1-0.3-0.1-0.4-0.2
		c-0.2-0.2-0.5-0.3-0.7-0.5c-0.7-0.6-1.3-1.4-1.6-2.3c-0.2-0.8-0.2-1.7,0-2.5c0.2-1,0.5-1.6,1-1.8c0.4-0.1,0.8,0,1.1,0.2
		c0.3,0.2,0.5,0.3,0.7,0.5c0.5,0.4,0.9,1,1.2,1.6C181.8,154.3,181.9,154.9,181.8,155.5z M178.8,154.4c-0.3,0-0.5,0.1-0.5,0.5
		c-0.1,0.4,0,0.8,0.1,1.1c0.2,0.4,0.5,0.8,0.8,1.2c0.1,0.1,0.2,0.2,0.4,0.3c0.2,0.1,0.3,0.2,0.5,0.2c0.2,0,0.4-0.2,0.5-0.5
		c0.1-0.4,0-0.8-0.1-1.1c-0.2-0.4-0.5-0.8-0.8-1.1c-0.1-0.1-0.3-0.2-0.4-0.3C179.2,154.5,179,154.4,178.8,154.4"></path><polygon class="st9" points="183.7,155.4 187.5,158.8 187.4,159.5 184.2,162.4 183.2,161.5 186.4,158.7 183.5,156.1 	"></polygon><path class="st9" d="M192.8,164.3c0.1,0.3,0.1,0.7,0.1,1c0,0.2-0.2,0.5-0.4,0.6c-0.3,0.1-0.6,0-0.9-0.2c0.3,0.4,0.6,0.8,0.7,1.3
		c0.1,0.4,0.2,0.8,0.1,1.1c-0.1,0.5-0.4,0.8-0.9,0.7c-0.3,0-0.6-0.2-0.8-0.3c-0.3-0.2-0.6-0.4-0.9-0.6c-0.6-0.5-1.1-1.2-1.5-1.9
		c-0.3-0.5-0.4-1.2-0.3-1.8c0-0.3,0.2-0.5,0.5-0.6c0.4-0.1,0.7,0,1,0.2c-0.3-0.3-0.5-0.7-0.6-1.1c-0.1-0.3-0.2-0.7-0.1-1
		c0-0.2,0.2-0.4,0.4-0.5c0.3-0.1,0.6,0,0.8,0.1l0.3,0.2c0.3,0.2,0.6,0.4,0.8,0.6c0.4,0.4,0.8,0.8,1.1,1.2
		C192.5,163.5,192.7,163.9,192.8,164.3z M191.6,167.1c0.1-0.4,0-0.7-0.2-1.1c-0.2-0.4-0.5-0.8-0.9-1.1c-0.1-0.1-0.3-0.3-0.5-0.4
		c-0.1-0.1-0.3-0.2-0.5-0.2c-0.3,0-0.4,0.1-0.5,0.4c-0.1,0.4,0,0.7,0.2,1.1c0.2,0.4,0.5,0.8,0.9,1.1c0.1,0.1,0.3,0.3,0.5,0.4
		c0.1,0.1,0.3,0.2,0.5,0.2C191.3,167.6,191.5,167.5,191.6,167.1 M191.9,164.5c0.1-0.3,0-0.6-0.2-0.9c-0.2-0.4-0.4-0.7-0.7-0.9
		c-0.1-0.1-0.3-0.2-0.4-0.3c-0.1-0.1-0.3-0.1-0.4-0.1c-0.2,0-0.4,0.1-0.4,0.4c-0.1,0.3,0,0.6,0.2,0.9c0.2,0.4,0.4,0.7,0.7,0.9
		c0.1,0.1,0.3,0.2,0.4,0.3c0.1,0.1,0.3,0.1,0.4,0.1C191.7,164.9,191.9,164.8,191.9,164.5"></path><path class="st9" d="M204.1,174.4c0.2,0.8,0.2,1.6,0,2.4c-0.2,1-0.5,1.6-1,1.8c-0.4,0.1-0.8,0.1-1.1-0.2c-0.2-0.2-0.5-0.3-0.7-0.5
		c-0.5-0.5-1-1-1.2-1.7c-0.2-0.5-0.4-1.1-0.3-1.7l0.9,0.8c0,0.3,0,0.7,0.2,1c0.1,0.3,0.4,0.6,0.6,0.9c0.1,0.1,0.2,0.2,0.4,0.3
		c0.2,0.2,0.4,0.2,0.7,0.1c0.3-0.1,0.5-0.5,0.6-1.2l0.1-0.3c-0.2,0.2-0.4,0.3-0.7,0.2c-0.2,0-0.3-0.1-0.5-0.2
		c-0.2-0.1-0.4-0.3-0.5-0.4c-0.5-0.5-1-1-1.2-1.7c-0.2-0.6-0.3-1.2-0.2-1.8c0-0.3,0.2-0.6,0.4-0.8c0.2-0.2,0.5-0.2,0.8-0.1
		c0.2,0.1,0.3,0.1,0.5,0.2c0.2,0.2,0.5,0.3,0.7,0.5C203.2,172.7,203.7,173.5,204.1,174.4z M203.3,175.2c0.1-0.4,0-0.8-0.1-1.1
		c-0.2-0.5-0.5-0.9-0.9-1.2c-0.1-0.1-0.2-0.2-0.4-0.3c-0.1-0.1-0.3-0.2-0.5-0.1c-0.2,0-0.4,0.2-0.5,0.5c-0.1,0.4,0,0.8,0.1,1.1
		c0.2,0.4,0.4,0.8,0.8,1.1c0.1,0.1,0.3,0.2,0.4,0.3c0.1,0,0.1,0.1,0.2,0.1c0.2,0.1,0.4,0.1,0.5,0
		C203.2,175.5,203.3,175.3,203.3,175.2"></path><polygon class="st9" points="206,175.5 207.9,177.1 206.7,182.6 205.7,181.8 206.7,177.1 205.8,176.3 	"></polygon><path class="st9" d="M213.3,182.8c0.2,0.8,0.3,1.7,0.1,2.5c-0.1,0.7-0.4,1.2-0.9,1.6c-0.4,0.1-0.8,0.1-1.1-0.2
		c-0.2-0.2-0.5-0.3-0.7-0.5c-0.7-0.6-1.2-1.4-1.5-2.2c-0.2-0.8-0.2-1.7,0-2.5c0.2-0.9,0.5-1.4,0.9-1.6c0.4-0.1,0.8,0,1.1,0.2
		c0.3,0.2,0.5,0.3,0.7,0.5C212.6,181.2,213.1,182,213.3,182.8z M212.5,184.5c0.1-0.5,0.1-1.1,0.1-1.7c-0.1-0.5-0.4-1-0.9-1.4
		c-0.1-0.1-0.2-0.2-0.4-0.3c-0.3-0.2-0.5-0.2-0.7-0.1c-0.3,0.3-0.5,0.8-0.6,1.2c-0.1,0.6-0.1,1.1,0,1.7c0.1,0.5,0.4,1,0.9,1.4
		c0.1,0.1,0.3,0.2,0.4,0.3c0.3,0.2,0.5,0.2,0.7,0C212.2,185.3,212.4,184.9,212.5,184.5"></path><path class="st9" d="M219.3,188.2c0.2,0.8,0.2,1.7,0.1,2.5c-0.2,0.9-0.5,1.4-0.9,1.6c-0.4,0.1-0.8,0.1-1.1-0.2
		c-0.3-0.2-0.5-0.3-0.7-0.5c-0.7-0.6-1.2-1.4-1.5-2.2c-0.2-0.8-0.2-1.7-0.1-2.5c0.2-0.9,0.5-1.4,0.9-1.6c0.4-0.1,0.8-0.1,1.1,0.2
		c0.3,0.2,0.5,0.3,0.7,0.5C218.5,186.5,219,187.3,219.3,188.2z M218.4,189.8c0.1-0.5,0.1-1.1,0.1-1.7c-0.1-0.5-0.4-1-0.9-1.4
		c-0.1-0.1-0.3-0.2-0.4-0.3c-0.3-0.2-0.5-0.2-0.7-0.1c-0.3,0.3-0.5,0.8-0.6,1.2c-0.1,0.6-0.2,1.1-0.1,1.7c0.1,0.5,0.4,1,0.9,1.4
		c0.1,0.1,0.3,0.2,0.4,0.3c0.3,0.2,0.5,0.2,0.7,0.1C218.2,190.7,218.3,190.3,218.4,189.8"></path><polygon class="st9" points="147.1,136.4 147.9,137.1 147,141.1 148.7,142.6 148.6,143.2 146.1,141 	"></polygon><polygon class="st9" points="143.5,133.2 146.3,135.7 146.2,136.3 144.2,134.5 143.9,135.9 145.7,137.5 145.6,138.1 143.8,136.5 
		143.5,137.9 145.5,139.7 145.3,140.3 142.6,137.8 	"></polygon><path class="st9" d="M158,146.3l0.8,6.1l-0.8-0.8l-0.2-1.3l-2-1.8l-0.6,0.6l-0.8-0.7l2.7-2.9L158,146.3z M156.1,148.1l1.6,1.4
		l-0.4-2.9L156.1,148.1"></path><polygon class="st9" points="151.7,140.6 154.9,143.4 154.8,144 151.7,145.3 154.1,147.4 153.9,148.1 150.7,145.2 150.8,144.6 
		153.9,143.2 151.6,141.2 	"></polygon><polygon class="st9" points="150.1,139.2 150.9,139.9 149.9,144.5 149.2,143.8 	"></polygon><polygon class="st9" points="171.8,158.7 172.6,159.4 172.2,161.3 174.5,163.4 174.9,161.4 175.7,162.1 174.7,166.7 173.9,166 
		174.4,164 172.1,161.9 171.6,164 170.9,163.3 	"></polygon><polygon class="st9" points="167.8,155 171.2,158.1 171.1,158.8 169.8,157.5 168.9,161.5 168.1,160.8 169,156.8 167.6,155.6 	"></polygon><g><path class="st9" d="M163.3,151.4c0.2,0.4,0.3,0.8,0.2,1.2c-0.1,0.3-0.2,0.5-0.4,0.5c-0.2,0-0.5,0-0.7-0.2l0,0
			c0.3,0.3,0.5,0.6,0.6,1c0.1,0.3,0.2,0.7,0.1,1c-0.1,0.4-0.3,0.6-0.6,0.6c-0.2,0-0.4-0.1-0.6-0.2c-0.2-0.1-0.5-0.3-0.7-0.5
			l-1.9-1.7l1-4.6l1.9,1.7C162.7,150.5,163,150.9,163.3,151.4z M162.4,154c0-0.3,0-0.5-0.1-0.8c-0.2-0.3-0.4-0.6-0.6-0.8l-1-0.9
			l-0.3,1.5l1,0.9c0.1,0.1,0.2,0.2,0.4,0.3c0.1,0.1,0.2,0.1,0.3,0.1C162.2,154.4,162.3,154.3,162.4,154 M162.7,152
			c0.1-0.2,0-0.5-0.1-0.7c-0.2-0.3-0.4-0.6-0.6-0.8l-0.9-0.8l-0.3,1.4l1,0.9c0.1,0.1,0.2,0.2,0.4,0.3c0.1,0.1,0.2,0.1,0.3,0.1
			C162.5,152.3,162.7,152.2,162.7,152"></path><polygon class="st9" points="164.6,152.2 167.4,154.7 167.2,155.3 165.2,153.5 164.9,154.9 166.7,156.5 166.6,157 164.8,155.4 
			164.5,156.9 166.5,158.6 166.4,159.3 163.6,156.8 		"></polygon></g><polygon class="st9" points="212.5,193.4 213.3,194.1 209.9,199.7 209.1,199.1 	"></polygon><path class="st9" d="M208,191.1c0.2,0.1,0.4,0.3,0.5,0.4c0.4,0.4,0.8,0.8,1,1.4c0.2,0.4,0.3,0.9,0.2,1.3c-0.1,0.3-0.3,0.6-0.5,0.7
		c-0.3,0.2-0.7,0.2-1,0.2c-0.4,0-0.8-0.1-1.2-0.2l2.3,2.1l-0.1,0.6l-3.4-3l0.1-0.6c0.7,0.2,1.4,0.2,2.1,0.2c0.5-0.1,0.9-0.3,0.9-0.7
		c0-0.2,0-0.5-0.1-0.7c-0.1-0.3-0.3-0.5-0.5-0.7l-0.3-0.2c-0.1-0.1-0.3-0.1-0.4-0.1c-0.2,0-0.3,0.2-0.4,0.5l-0.8-0.7
		c0.1-0.5,0.4-0.7,0.8-0.7C207.5,190.9,207.8,191,208,191.1z"></path><polygon class="st9" points="204.4,188 206,189.4 205,194 204.2,193.3 205,189.4 204.3,188.7 	"></polygon><path class="st9" d="M214.4,197c0.2,0.1,0.4,0.3,0.5,0.4c0.4,0.4,0.8,0.8,1,1.4c0.2,0.4,0.3,0.9,0.2,1.3c-0.1,0.3-0.3,0.6-0.5,0.7
		c-0.3,0.1-0.7,0.2-1,0.2c-0.4,0-0.8-0.1-1.2-0.2l2.3,2.1l-0.1,0.6l-3.4-3l0.1-0.6c0.7,0.2,1.4,0.2,2.1,0.2c0.6-0.1,0.9-0.3,0.9-0.7
		c0-0.2,0-0.5-0.1-0.7c-0.1-0.3-0.3-0.5-0.5-0.7l-0.3-0.2c-0.1-0.1-0.3-0.1-0.4-0.1c-0.2,0-0.3,0.2-0.4,0.5l-0.8-0.7
		c0.1-0.5,0.4-0.7,0.8-0.7C214,196.8,214.2,196.9,214.4,197z"></path><path class="st9" d="M217.4,199.6l3.1,2.8l-0.1,0.7l-2.4-2.2l-0.3,1.4c0.2,0,0.4,0,0.5,0.1l0.2,0.1c0.2,0.1,0.3,0.2,0.5,0.4
		c0.3,0.3,0.6,0.6,0.8,1c0.2,0.3,0.3,0.6,0.4,1c0.1,0.3,0.1,0.6,0,0.9c-0.1,0.5-0.3,0.8-0.7,0.8c-0.3,0-0.5-0.1-0.7-0.2
		c-0.2-0.1-0.4-0.3-0.6-0.4c-0.5-0.4-0.9-0.9-1.2-1.5c-0.2-0.5-0.3-1-0.3-1.5l0.8,0.7c0,0.3,0.1,0.6,0.2,0.8
		c0.1,0.3,0.3,0.5,0.6,0.8c0.1,0.1,0.2,0.2,0.3,0.2c0.1,0.1,0.3,0.1,0.4,0.1c0.2,0,0.3-0.2,0.4-0.5c0.1-0.3,0-0.6-0.1-0.9
		c-0.1-0.3-0.4-0.6-0.6-0.9c-0.1-0.1-0.2-0.2-0.3-0.3c-0.1,0-0.2-0.1-0.2-0.1c-0.1-0.1-0.3-0.1-0.4,0l-0.8-0.7L217.4,199.6z"></path><path class="st9" d="M244.6,179l0.7,5.5l-0.9-0.8l-0.1-1.1l-1.8-1.6l-0.5,0.6l-0.9-0.8l2.5-2.6L244.6,179z M242.9,180.6l1.3,1.2
		l-0.3-2.3L242.9,180.6"></path><path class="st9" d="M241.2,176.2c0.2,0.3,0.3,0.7,0.2,1.1c0,0.3-0.2,0.4-0.4,0.4c-0.2,0-0.4,0-0.6-0.2l0,0
		c0.2,0.3,0.4,0.6,0.6,0.9c0.1,0.3,0.2,0.6,0.1,0.9c-0.1,0.4-0.2,0.5-0.5,0.5c-0.2,0-0.4-0.1-0.5-0.2c-0.2-0.1-0.4-0.3-0.6-0.5
		l-1.9-1.7l0.9-4.1l1.8,1.6C240.6,175.3,240.9,175.7,241.2,176.2z M240.2,178.4c0-0.2,0-0.4-0.1-0.6c-0.1-0.2-0.3-0.5-0.5-0.6
		l-0.8-0.7l-0.2,1.1l0.8,0.7l0.3,0.2c0.1,0,0.2,0.1,0.2,0.1C240.1,178.7,240.1,178.6,240.2,178.4 M240.5,176.6c0-0.2,0-0.4-0.1-0.6
		c-0.1-0.2-0.3-0.4-0.5-0.6l-0.8-0.7l-0.2,1.1l0.8,0.7c0.1,0.1,0.2,0.2,0.3,0.2c0.1,0.1,0.2,0.1,0.2,0.1
		C240.3,176.9,240.4,176.8,240.5,176.6"></path><polygon class="st9" points="251.1,184.8 252,185.6 251.6,187.4 253.6,187 254.7,188 252.4,188.4 253.8,192.1 252.8,191.2 
		251.5,187.8 251.1,189.7 250.3,188.9 	"></polygon><polygon class="st9" points="246.7,180.8 247.5,181.6 248.9,186.1 249.5,183.3 250.4,184.1 249.5,188.2 248.6,187.4 247.2,182.9 
		246.6,185.7 245.8,184.9 	"></polygon><path class="st2" d="M129.3,127.7v78.6c0,5.6,3,10.7,7.8,13.5l108.5,63c5.4,3.1,12.3,1.3,15.5-4.1c1-1.7,1.5-3.7,1.5-5.7v-66.5
		c0-7.6-4-14.7-10.6-18.6l-111.7-66.5c-3.5-2.1-7.9-0.9-10,2.5C129.6,125.1,129.3,126.4,129.3,127.7z"></path><path class="st8" d="M238.4,318.4c0.4,0.7,0.5,1.4,0.5,2.2l0.3,47.4c2.6,1.4,8.7,2,11.5,2.5c4.9,0.7,9.8,1,14.7,0.8
		c6.5-0.1,12.7-0.4,18.9-2.8c-0.4-13.3-3-58.5-2.6-62.8c0.5-4.5,16.3-42.4,19.7-58.1c-9.6,0.3-19.2,0-28.8-0.6
		c0.6,10-4.1,21.1-13.5,20.7c-13-0.5-14.1-44.4-25.1-43.9s-0.8,20.6-4.2,47.6C227,294.9,236.1,314,238.4,318.4z"></path><path class="st9" d="M140,147.6c0.6,0.4,1.2,0.9,1.6,1.5c0.4,0.6,0.7,1.3,0.9,2l-1.3-0.8c-0.1-0.3-0.3-0.6-0.5-0.9
		c-0.2-0.3-0.4-0.5-0.7-0.6c-0.4-0.2-0.6-0.2-0.8-0.1c-0.2,0.3-0.3,0.6-0.2,1c0,0.5,0.2,0.9,0.4,1.4c0.2,0.4,0.5,0.8,0.9,1
		c0.2,0.1,0.4,0.2,0.7,0.2c0.2,0,0.3-0.2,0.4-0.4l1.3,0.8c0,0.4-0.3,0.8-0.7,1c-0.5,0.1-1.1,0-1.5-0.4c-0.5-0.3-0.9-0.7-1.3-1.1
		c-0.4-0.5-0.7-1-0.9-1.5c-0.2-0.5-0.4-1.1-0.4-1.7c-0.1-0.4,0-0.9,0.2-1.3c0.1-0.3,0.5-0.5,0.8-0.5
		C139.2,147.2,139.6,147.3,140,147.6z"></path><path class="st9" d="M146,154.5l1.3,2.9l-1.3-0.8l-1.2-2.8l-0.3-0.2l0.1,2.1l-1.2-0.7l-0.4-5.7l2.1,1.2c0.4,0.2,0.7,0.5,1,0.8
		c0.3,0.3,0.5,0.6,0.6,1c0.2,0.3,0.2,0.7,0.3,1.1c0.1,0.3,0,0.6-0.2,0.9C146.6,154.6,146.3,154.7,146,154.5z M145.7,153.4
		c0.1,0,0.1-0.2,0.1-0.4c0-0.2-0.1-0.4-0.2-0.6c-0.1-0.2-0.3-0.4-0.5-0.5l-0.8-0.4l0.1,1.4l0.8,0.4
		C145.4,153.4,145.6,153.4,145.7,153.4"></path><polygon class="st9" points="150.6,154 150.7,155.1 148.8,154 148.9,155.2 150.6,156.2 150.6,157.2 148.9,156.2 149,157.5 
		150.9,158.6 151,159.7 147.9,157.8 147.5,152.2 	"></polygon><path class="st9" d="M155.6,158.3c0.2,0.5,0.4,1.1,0.4,1.7c0.1,0.4,0,0.9-0.2,1.3c-0.2,0.3-0.5,0.5-0.8,0.5c-0.5,0-1-0.2-1.4-0.5
		l-1.9-1.1l-0.4-5.7l1.9,1.1C154.3,156.3,155.1,157.2,155.6,158.3L155.6,158.3z M154.4,160.2c0.2-0.1,0.3-0.4,0.3-1
		c0-0.5-0.2-1-0.5-1.4c-0.3-0.4-0.7-0.8-1.1-1.1l-0.6-0.3l0.2,3.2l0.6,0.3C153.8,160.2,154.2,160.3,154.4,160.2"></path><polygon class="st9" points="157.7,158.3 158,163.9 156.8,163.2 156.5,157.6 	"></polygon><polygon class="st9" points="162.1,160.9 162.1,162 160.8,161.2 161.1,165.8 159.9,165 159.6,160.5 158.2,159.7 158.2,158.6 	"></polygon><path class="st9" d="M172.2,167l2.2,6.7l-1.3-0.8l-0.4-1.2l-1.9-1.1l-0.2,0.8l-1.3-0.8l1.5-4.5L172.2,167z M171.1,169.8l1.3,0.8
		l-0.8-2.4L171.1,169.8"></path><path class="st9" d="M166.3,163.4c0.6,0.4,1.2,0.9,1.6,1.5c0.4,0.6,0.7,1.3,0.9,2l-1.3-0.8c-0.1-0.3-0.3-0.6-0.5-0.9
		c-0.2-0.3-0.4-0.5-0.7-0.6c-0.4-0.2-0.6-0.2-0.8-0.1c-0.2,0.3-0.3,0.6-0.2,1c0,0.5,0.2,0.9,0.4,1.4c0.2,0.4,0.5,0.8,0.9,1
		c0.2,0.1,0.4,0.2,0.7,0.2c0.2,0,0.3-0.2,0.4-0.4l1.3,0.8c0,0.5-0.3,0.9-0.7,1.1c-0.5,0.1-1.1,0-1.5-0.4c-0.5-0.3-0.9-0.7-1.3-1.1
		c-0.4-0.5-0.7-1-0.9-1.5c-0.2-0.5-0.3-1.1-0.4-1.7c-0.1-0.5,0-0.9,0.2-1.3c0.1-0.3,0.4-0.5,0.8-0.5
		C165.4,163,165.9,163.1,166.3,163.4z"></path><path class="st9" d="M177.4,173.4l1.3,2.9l-1.3-0.8l-1.2-2.8l-0.3-0.2l0.1,2.1l-1.2-0.7l-0.4-5.7l2.1,1.2c0.4,0.2,0.7,0.5,1,0.8
		c0.3,0.3,0.5,0.6,0.6,1c0.1,0.3,0.2,0.7,0.3,1.1c0.1,0.3,0,0.6-0.2,0.9C178,173.5,177.7,173.5,177.4,173.4z M177.1,172.3
		c0.1-0.1,0.1-0.2,0.1-0.4c0-0.2-0.1-0.4-0.2-0.6c-0.1-0.2-0.3-0.4-0.5-0.5l-0.7-0.4l0.1,1.4l0.8,0.4
		C176.8,172.3,177,172.3,177.1,172.3"></path><path class="st9" d="M183.2,174.9c0.2,0.5,0.4,1.1,0.4,1.7c0.1,0.4,0,0.9-0.2,1.3c-0.2,0.3-0.5,0.5-0.8,0.5c-0.5,0-1-0.2-1.4-0.5
		l-1.9-1.1l-0.4-5.7l1.9,1.1c0.5,0.3,1,0.7,1.4,1.2C182.6,173.8,183,174.3,183.2,174.9z M182.1,176.8c0.2-0.1,0.4-0.4,0.3-1
		c0-0.5-0.2-1-0.5-1.4c-0.3-0.4-0.7-0.8-1.1-1.1l-0.6-0.3l0.2,3.2l0.6,0.3C181.5,176.8,181.8,176.9,182.1,176.8"></path><polygon class="st9" points="141.9,183.8 142.4,191.3 141.3,190.7 140.9,184.3 139.9,183.7 139.8,182.5 	"></polygon><path class="st9" d="M146.2,186.3c0.6,0.4,1.2,0.9,1.6,1.5c0.4,0.6,0.6,1.2,0.7,1.9c0,0.5-0.1,1-0.3,1.4c-0.2,0.4-0.6,0.7-1,0.9
		c-0.4,0.2-0.9,0.3-1.3,0.4l3.1,1.9l0.1,1l-4.6-2.8l-0.1-0.9c0.8-0.1,1.6-0.4,2.3-0.9c0.5-0.3,0.8-0.9,0.8-1.6
		c0-0.4-0.1-0.7-0.3-1.1c-0.2-0.3-0.5-0.6-0.8-0.8c-0.4-0.2-0.7-0.3-0.8-0.1c-0.2,0.3-0.3,0.6-0.2,1l-1-0.6c0-0.8,0.2-1.4,0.6-1.6
		C145.3,185.8,145.8,185.9,146.2,186.3z"></path><path class="st9" d="M152.6,190c0.4,0.3,0.8,0.6,1.1,0.9c0.3,0.3,0.6,0.7,0.8,1.1c0.2,0.4,0.3,0.8,0.3,1.2c0.1,0.4,0,0.7-0.3,1
		c-0.2,0.2-0.5,0.2-1,0v0.1c0.4,0.4,0.8,0.8,1.1,1.3c0.3,0.4,0.4,0.9,0.5,1.5c0,0.6-0.1,1-0.4,1.2s-0.9,0-1.6-0.4
		c-0.7-0.4-1.3-1-1.8-1.6c-0.5-0.7-0.8-1.5-0.9-2.3l1.1,0.6c0.1,0.9,0.7,1.7,1.4,2.2c0.4,0.2,0.6,0.3,0.8,0.2s0.3-0.3,0.2-0.7
		c0-0.4-0.2-0.9-0.5-1.2c-0.4-0.4-0.8-0.8-1.3-1.1l-0.2-0.1l-0.1-1l0.2,0.1l0,0c1,0.6,1.5,0.5,1.4-0.3c0-0.4-0.1-0.7-0.3-1
		c-0.2-0.3-0.5-0.6-0.8-0.8c-0.2-0.2-0.5-0.2-0.8-0.1c-0.2,0.1-0.3,0.3-0.3,0.7l-1.1-0.6c0-0.7,0.2-1.2,0.6-1.3
		S151.9,189.6,152.6,190z"></path><path class="st9" d="M161.4,200.1l0.9,0.6l0.1,1.1l-0.9-0.6l0.1,1.6l-1.1-0.6l-0.1-1.6l-3.4-2l-0.1-1l3-3l1.1,0.7L161.4,200.1z
		 M160.4,199.5l-0.2-3.5l-2.1,2.1L160.4,199.5"></path><path class="st9" d="M174.5,203.3l0.1,1.1l-3.3-2l0.1,2.2c0.2-0.1,0.4-0.2,0.6-0.1c0.3,0.1,0.6,0.2,0.9,0.4c0.4,0.3,0.8,0.6,1.2,1
		c0.3,0.4,0.6,0.8,0.7,1.3c0.2,0.4,0.3,0.9,0.3,1.4c0.1,0.8-0.1,1.3-0.5,1.6s-0.9,0.2-1.6-0.3c-0.7-0.4-1.3-1-1.7-1.6
		c-0.4-0.6-0.7-1.3-0.8-2.1l1.1,0.6c0.1,0.4,0.2,0.8,0.5,1.2c0.2,0.3,0.5,0.6,0.9,0.9c0.4,0.2,0.7,0.3,0.9,0.1
		c0.2-0.3,0.3-0.6,0.2-1c0-0.4-0.2-0.9-0.4-1.3c-0.2-0.4-0.6-0.8-1-1c-0.2-0.2-0.5-0.2-0.7-0.2c-0.2,0-0.4,0.1-0.4,0.3l-1-0.6
		l-0.3-4.3L174.5,203.3z"></path><path class="st9" d="M181.3,210.5c0.4,0.7,0.6,1.4,0.7,2.2c0,0.4,0,0.8-0.2,1.1c-0.1,0.3-0.4,0.4-0.7,0.4c-0.4,0-0.9-0.2-1.2-0.4
		c-0.9-0.5-1.6-1.3-2-2.2c-0.4-1-0.7-2-0.7-3.1c-0.2-0.9,0-1.9,0.4-2.7c0.3-0.4,0.9-0.4,1.8,0.1c0.6,0.4,1.2,0.9,1.5,1.5
		c0.4,0.6,0.6,1.3,0.7,2l-1-0.6c-0.1-0.8-0.5-1.6-1.2-2c-0.5-0.3-0.8-0.3-1,0c-0.3,0.6-0.3,1.2-0.2,1.8v0.4c0-0.3,0.3-0.5,0.6-0.5
		c0.4,0,0.8,0.1,1.1,0.3C180.4,209.3,180.9,209.9,181.3,210.5z M180.7,213c0.2-0.1,0.3-0.4,0.3-0.9c0-0.5-0.2-1-0.4-1.4
		c-0.2-0.4-0.6-0.8-1-1c-0.3-0.2-0.6-0.3-0.9-0.2c-0.3,0.1-0.4,0.4-0.3,0.8c0,0.5,0.2,1,0.4,1.4c0.3,0.5,0.6,0.8,1.1,1.1
		C180.1,213,180.4,213.1,180.7,213"></path><polygon class="st9" points="187.6,211.2 187.6,212.1 185.6,217.3 184.5,216.6 186.6,211.6 183.3,209.6 183.2,208.5 	"></polygon><path class="st9" d="M194.1,219.2c0.2,0.4,0.4,0.9,0.4,1.4c0,0.7-0.1,1.2-0.6,1.3c-0.6,0.1-1.3-0.1-1.8-0.5c-0.7-0.4-1.3-1-1.8-1.7
		c-0.5-0.6-0.7-1.4-0.8-2.1c-0.1-0.4,0-0.7,0.3-1c0.3-0.2,0.6-0.3,0.9-0.1c-0.4-0.3-0.7-0.7-0.9-1.2c-0.2-0.4-0.3-0.8-0.4-1.2
		c0-0.3,0-0.6,0.2-0.9c0.2-0.2,0.5-0.3,0.7-0.3c0.4,0.1,0.9,0.2,1.2,0.5c0.5,0.3,0.9,0.6,1.3,1c0.3,0.4,0.6,0.8,0.8,1.2
		c0.2,0.4,0.3,0.8,0.3,1.2c0.1,0.3,0,0.6-0.2,0.9c-0.2,0.2-0.5,0.3-0.8,0.1C193.5,218.2,193.9,218.7,194.1,219.2z M193.2,220.7
		c0.2-0.1,0.3-0.4,0.3-0.8c0-0.5-0.2-0.9-0.5-1.2c-0.3-0.4-0.6-0.7-1.1-1c-0.3-0.2-0.6-0.3-1-0.3c-0.2,0.1-0.4,0.3-0.3,0.8
		c0,0.5,0.2,0.9,0.5,1.2c0.3,0.4,0.6,0.7,1.1,1C192.4,220.6,192.8,220.7,193.2,220.7 M190.6,214.9c0,0.4,0.2,0.8,0.4,1.1
		c0.2,0.3,0.6,0.6,0.9,0.9c0.3,0.2,0.6,0.3,0.9,0.2c0.2-0.1,0.3-0.3,0.3-0.7c0-0.4-0.2-0.8-0.4-1.1c-0.2-0.4-0.6-0.6-0.9-0.9
		c-0.3-0.2-0.6-0.3-0.9-0.2C190.7,214.3,190.6,214.5,190.6,214.9"></path><path class="st9" d="M206.6,223.4c0.4,1,0.7,2,0.7,3.1c0.2,0.9,0,1.9-0.4,2.7c-0.3,0.5-0.9,0.5-1.8-0.1c-0.6-0.4-1.2-0.9-1.6-1.6
		c-0.4-0.6-0.6-1.3-0.8-2l1,0.6c0.1,0.4,0.2,0.8,0.4,1.2c0.2,0.3,0.5,0.6,0.8,0.8c0.5,0.3,0.8,0.3,1,0c0.2-0.6,0.3-1.2,0.2-1.8V226
		c0,0.3-0.3,0.5-0.6,0.6c-0.4,0-0.8-0.1-1.1-0.3c-0.6-0.4-1.2-0.9-1.6-1.6c-0.4-0.7-0.6-1.4-0.7-2.2c0-0.4,0-0.8,0.2-1.1
		c0.1-0.3,0.4-0.4,0.7-0.5c0.4,0,0.9,0.2,1.2,0.4C205.5,221.7,206.2,222.5,206.6,223.4z M206.1,225.4c0.1-0.2,0.2-0.5,0.1-0.7
		c0-0.5-0.2-0.9-0.4-1.4c-0.3-0.5-0.6-0.8-1.1-1.1c-0.4-0.2-0.7-0.3-0.9-0.2s-0.3,0.4-0.3,0.9c0.1,1,0.6,1.9,1.4,2.4
		c0.2,0.1,0.4,0.2,0.6,0.2C205.8,225.6,205.9,225.6,206.1,225.4"></path><polygon class="st9" points="210.8,225.1 211.3,232.7 210.1,232 209.7,225.6 208.7,225 208.6,223.9 	"></polygon><path class="st9" d="M217.2,229.9c0.4,1,0.7,2,0.8,3.1c0.1,0.8,0,1.7-0.4,2.5c-0.3,0.5-0.9,0.4-1.8-0.1c-0.9-0.5-1.5-1.3-1.9-2.1
		c-0.4-1-0.7-2.1-0.8-3.2c-0.1-0.8,0-1.7,0.4-2.5c0.3-0.4,0.9-0.4,1.8,0.1C216.1,228.2,216.8,229,217.2,229.9z M216.8,234.2
		c0.2-0.6,0.2-1.2,0.1-1.8c0-0.7-0.2-1.4-0.4-2.1c-0.2-0.6-0.6-1-1.1-1.3c-0.5-0.3-0.9-0.3-1,0c-0.2,0.6-0.2,1.2-0.1,1.8
		c0,0.7,0.2,1.5,0.4,2.2c0.2,0.6,0.6,1,1.1,1.4C216.3,234.6,216.6,234.5,216.8,234.2"></path><path class="st9" d="M224,234c0.4,1,0.7,2.1,0.7,3.1c0.1,0.8,0,1.7-0.4,2.5c-0.3,0.5-0.9,0.4-1.8-0.1c-0.9-0.5-1.5-1.3-1.9-2.1
		c-0.5-1-0.7-2.1-0.8-3.2c-0.1-0.8,0-1.7,0.4-2.5c0.3-0.4,0.9-0.4,1.8,0.1C222.9,232.4,223.6,233.1,224,234z M223.5,238.3
		c0.2-0.6,0.2-1.2,0.1-1.8c0-0.7-0.2-1.5-0.4-2.1c-0.2-0.6-0.6-1-1.1-1.3c-0.5-0.3-0.9-0.3-1,0c-0.2,0.6-0.2,1.2-0.1,1.8
		c0,0.7,0.2,1.5,0.4,2.2c0.2,0.6,0.6,1,1.1,1.4C223.1,238.7,223.4,238.7,223.5,238.3"></path><polygon class="st9" points="144.4,200.7 144.5,201.5 142.2,200.1 142.3,202.1 144.4,203.3 144.4,204.1 142.4,202.8 142.5,204.8 
		144.8,206.1 144.8,207 141.7,205.1 141.3,198.8 	"></polygon><polygon class="st9" points="146.2,201.8 146.6,207.2 148.5,208.4 148.5,209.2 145.7,207.5 145.3,201.2 	"></polygon><polygon class="st9" points="149.7,203.9 150.1,210.1 149.2,209.6 148.8,203.3 	"></polygon><polygon class="st9" points="154.2,206.6 154.2,207.4 151.9,210.4 154.6,212 154.6,212.9 151,210.6 150.9,209.9 153.2,206.8 
		150.7,205.2 150.6,204.4 	"></polygon><path class="st9" d="M157.8,208.8l2.4,7.4l-0.9-0.6l-0.5-1.6l-2.3-1.4l-0.3,1.1l-1-0.6l1.6-5L157.8,208.8z M156.6,212l1.8,1.1
		l-1.1-3.5L156.6,212"></path><path class="st9" d="M164.4,216.1c0.2,0.4,0.3,0.8,0.4,1.2c0,0.5-0.1,0.9-0.4,1s-0.7,0-1.3-0.4l-2.2-1.3l-0.4-6.3l2.2,1.3
		c0.5,0.3,1,0.7,1.3,1.2c0.3,0.4,0.5,0.9,0.5,1.4c0.1,0.3,0,0.6-0.2,0.8c-0.2,0.1-0.5,0.2-0.7,0.1
		C163.9,215.4,164.2,215.7,164.4,216.1z M163.6,217.2c0.2,0,0.2-0.2,0.2-0.6c0-0.3-0.1-0.6-0.3-0.9c-0.2-0.3-0.5-0.6-0.8-0.7
		l-1.1-0.7l0.1,2l1.1,0.7C163.2,217.2,163.4,217.2,163.6,217.2 M161.4,211.7l0.1,1.9l1.1,0.7c0.3,0.2,0.6,0.2,0.7,0.2
		s0.2-0.2,0.2-0.5c0-0.3-0.1-0.6-0.3-0.8c-0.2-0.3-0.5-0.5-0.8-0.7L161.4,211.7"></path><polygon class="st9" points="168.4,215.1 168.5,215.9 166.2,214.6 166.4,216.5 168.4,217.7 168.4,218.5 166.4,217.3 166.5,219.2 
		168.8,220.6 168.9,221.4 165.7,219.5 165.3,213.2 	"></polygon><polygon class="st9" points="172.9,217.8 172.9,218.6 171.4,217.7 171.7,223.1 170.8,222.6 170.5,217.1 168.9,216.2 168.9,215.4 	
		"></polygon><polygon class="st9" points="177.9,220.8 178.3,227.1 177.4,226.5 177.2,223.7 174.6,222.2 174.8,225 173.9,224.4 173.5,218.2 
		174.4,218.7 174.6,221.3 177.2,222.9 177,220.3 	"></polygon><polygon class="st9" points="212.5,241.6 212.9,247.9 212,247.3 211.6,242 210.8,241.5 210.7,240.5 	"></polygon><path class="st9" d="M222.7,247.6c0.5,0.3,1,0.7,1.3,1.2c0.3,0.5,0.5,1,0.5,1.6c0,0.4-0.1,0.8-0.3,1.2c-0.2,0.3-0.5,0.6-0.9,0.7
		c-0.4,0.2-0.7,0.3-1.1,0.3l2.6,1.6l0.1,0.8l-3.8-2.3V252c0.7-0.1,1.3-0.4,1.9-0.7c0.4-0.3,0.7-0.8,0.6-1.3c0-0.3-0.1-0.6-0.3-0.9
		c-0.2-0.3-0.4-0.5-0.7-0.7c-0.3-0.2-0.6-0.2-0.7-0.1c-0.2,0.2-0.3,0.5-0.2,0.8l-0.9-0.5c0-0.7,0.1-1.1,0.5-1.3
		C221.9,247.2,222.4,247.3,222.7,247.6z"></path><polygon class="st9" points="220.3,244.2 218.9,252.9 218,252.4 219.5,243.7 	"></polygon><path class="st9" d="M215.3,243.2c0.5,0.3,1,0.7,1.3,1.2c0.3,0.5,0.5,1,0.5,1.6c0,0.4-0.1,0.8-0.3,1.2c-0.2,0.3-0.5,0.6-0.9,0.7
		c-0.4,0.2-0.7,0.3-1.1,0.3l2.6,1.6v0.8l-3.8-2.3l-0.1-0.7c0.7-0.1,1.3-0.4,1.9-0.7c0.4-0.3,0.7-0.8,0.6-1.3c0-0.3-0.1-0.6-0.2-0.9
		c-0.2-0.3-0.4-0.5-0.7-0.7c-0.3-0.2-0.5-0.2-0.7-0.1c-0.2,0.2-0.3,0.5-0.2,0.8l-0.9-0.5c0-0.7,0.2-1.1,0.5-1.3
		C214.4,242.7,215,242.8,215.3,243.2z"></path><path class="st9" d="M229.1,251.4l0.1,0.9l-2.7-1.6l0.1,1.9c0.1-0.1,0.3-0.2,0.5-0.1c0.3,0,0.5,0.1,0.8,0.3c0.4,0.2,0.7,0.5,1,0.9
		c0.3,0.3,0.5,0.7,0.6,1.1c0.1,0.4,0.2,0.7,0.2,1.1c0,0.7-0.1,1.1-0.4,1.3s-0.8,0.1-1.4-0.2c-0.6-0.3-1.1-0.8-1.4-1.4
		c-0.4-0.5-0.6-1.1-0.7-1.7l0.9,0.5c0.1,0.4,0.2,0.7,0.4,1c0.2,0.3,0.4,0.5,0.7,0.7c0.4,0.2,0.6,0.2,0.8,0.1
		c0.2-0.2,0.3-0.5,0.2-0.8c-0.1-0.8-0.5-1.5-1.1-1.9c-0.2-0.1-0.4-0.2-0.6-0.2c-0.2,0-0.3,0.1-0.4,0.2l-0.9-0.5l-0.2-3.6
		L229.1,251.4z"></path><path class="st9" d="M240.6,211.7c0.2,0.3,0.3,0.7,0.3,1.1c0,0.5-0.1,0.8-0.4,0.9s-0.7,0-1.2-0.3l-2.1-1.3l-0.4-5.6l2.1,1.3
		c0.5,0.3,0.9,0.6,1.2,1.1c0.3,0.4,0.4,0.8,0.5,1.3c0.1,0.3,0,0.5-0.2,0.7c-0.2,0.1-0.4,0.2-0.6,0.1
		C240.2,211,240.4,211.3,240.6,211.7z M239.8,212.4c0.1-0.1,0.2-0.2,0.2-0.4c0-0.3-0.1-0.5-0.2-0.7c-0.2-0.2-0.4-0.4-0.6-0.6
		l-0.9-0.6l0.1,1.6l0.9,0.6C239.4,212.4,239.6,212.5,239.8,212.4 M238,207.9l0.1,1.5l0.9,0.5c0.2,0.1,0.4,0.2,0.6,0.1
		s0.2-0.2,0.2-0.4c0-0.2-0.1-0.5-0.2-0.7c-0.2-0.2-0.4-0.4-0.6-0.5L238,207.9"></path><path class="st9" d="M244,210.7l2.2,6.7l-1-0.6l-0.4-1.3l-2-1.2l-0.3,0.9l-1.1-0.6l1.5-4.5L244,210.7z M242.9,213.5l1.5,0.9
		l-0.9-2.8L242.9,213.5"></path><polygon class="st9" points="250.6,214.6 250.9,220.2 249.9,219.6 247.4,214.4 247.7,218.3 246.7,217.7 246.3,212 247.3,212.6 
		249.8,217.9 249.6,214 	"></polygon><polygon class="st9" points="255.5,217.5 253.6,219 255.9,223.2 254.6,222.5 252.6,218.8 252.8,221.4 251.8,220.8 251.4,215.1 
		252.4,215.7 252.6,218.2 254.3,216.8 	"></polygon><polygon class="st11" points="146.9,169.2 139,164.4 146.7,165.7 	"></polygon><g><path class="st11" d="M138.9,170.5l8.5,5.1l0.1,2.2l-6.6-4C139.8,173,139.1,171.8,138.9,170.5L138.9,170.5z"></path><polygon class="st10" points="147.5,177.8 147.4,175.6 147.8,175.8 147.9,178 147.7,177.9 		"></polygon><polygon class="st11" points="147.8,175.8 150.2,177.3 150.3,179.5 147.9,178 		"></polygon><polygon class="st10" points="147.3,175.1 147.7,175.4 150.2,176.8 150.2,177.3 147.8,175.8 147.4,175.6 138.9,170.5 138.9,170.2 
			138.9,170 		"></polygon><polygon class="st11" points="147,169.7 147.3,175.1 138.9,170 138.5,164.6 		"></polygon><polygon class="st10" points="138.5,164.1 139,164.4 146.9,169.2 147,169.7 138.5,164.6 		"></polygon><path class="st11" d="M146.7,165.7l-7.7-1.3l-0.5-0.3l-0.2-2.7c-0.1-1.2,0.7-1.6,1.8-1l6.6,4L146.7,165.7z"></path><polygon class="st10" points="146.6,164.4 147,164.6 147.1,165.8 147.3,169.5 147.4,169.9 147.7,175.4 147.3,175.1 147,169.7 
			146.9,169.2 146.7,165.7 		"></polygon><polygon class="st10" points="149.5,166.1 149.9,166.3 150.2,171.6 147.4,169.9 147.3,169.5 149.8,170.9 149.5,166.2 		"></polygon><path class="st11" d="M153.6,168.6c1.1,0.8,1.8,2,2,3.3l0.6,8.6l-3.3-2l-0.2-3.8l-2.7-1.6l0.2,3.8l-2.4-1.5l-0.4-5.4l2.8,1.7
			l-0.3-5.3L153.6,168.6z"></path></g><path class="st11" d="M153.1,181.1l-0.1-2.2l3.3,2l0,0c0.1,1.2-0.7,1.6-1.7,1L153.1,181.1z"></path><polygon class="st11" points="149.5,166.1 149.5,166.2 147.1,165.8 147,164.6 	"></polygon><polygon class="st11" points="147.1,165.8 149.5,166.2 149.8,170.9 147.3,169.5 	"></polygon><polygon class="st10" points="152.9,178.5 156.2,180.4 156.2,180.9 152.9,178.9 	"></polygon><polygon class="st10" points="152.6,174.6 152.9,178.5 152.9,178.9 153.1,181.1 152.9,181 152.7,180.9 152.3,174.9 150.3,173.7 
		150.7,179.7 150.5,179.6 150.3,179.5 150.2,177.3 150.2,176.8 149.9,173 	"></polygon><polygon class="st11" points="152.3,174.9 152.7,180.9 152.9,181 150.5,179.6 150.7,179.7 150.3,173.7 	"></polygon></g></svg>