<svg transform="scale(1)" version="1.1" id="Layer_1" xmlns="http://www.w3.org/2000/svg" xmlns:xlink="http://www.w3.org/1999/xlink" x="0px" y="0px" viewBox="0 0 500 500" xml:space="preserve" class="show_show__wrapper__graphic__5Waiy "><title>React</title><style type="text/css">
	.st0{fill:#FEE9D4;}
	.st1{fill:#FE9B00;}
	.st2{fill:#FFD64C;}
	.st3{fill:#68E1FD;}
	.st4{fill:#269B9E;}
	.st5{fill:#FFA197;}
	.st6{fill:#FFFFFF;}
	.st7{fill:url(#SVGID_1_);}
	.st8{fill:#E27801;}
	.st9{fill:url(#SVGID_00000171698768740401063390000007462262860384365201_);}
	.st10{opacity:0.56;fill:#68E1FD;enable-background:new    ;}
	.st11{opacity:0.33;fill:url(#SVGID_00000039117797296161428520000018328617590184355507_);enable-background:new    ;}
	.st12{fill:#E5913E;}
	.st13{opacity:0.24;fill:#E27801;enable-background:new    ;}
</style><path class="st0" id="field" d="M23.8,309.7l225.5,129.9c2,1.1,4.4,1.1,6.4,0l220.6-125.2c3.1-1.8,4.1-5.7,2.4-8.7
	c-0.6-1-1.4-1.8-2.4-2.4L246.9,172.1c-2-1.1-4.4-1.1-6.4,0L23.7,298.7c-3,1.8-4.1,5.7-2.3,8.7c0,0,0,0,0,0
	C22,308.4,22.8,309.2,23.8,309.7z"></path><g id="btc"><polyline class="st1" points="384.7,251 384.7,121.9 322.5,85.6 322.5,215.6 	"></polyline><polygon class="st2" points="339.9,172.7 340,181.1 339,180.6 332.6,177.2 333.8,169.5 338.9,172.2 	"></polygon><polygon class="st2" points="351.1,180.4 351.2,187 351.2,194.1 344.4,190.5 344.4,183.4 344.3,176.8 	"></polygon><polygon class="st2" points="363.1,186.7 363.1,193.1 363.2,200.4 356.4,196.8 356.3,189.8 356.3,183.1 	"></polygon><polygon class="st2" points="339.5,130.4 339.5,130.5 339.6,138.9 338.6,138.3 333.5,135.6 332.2,126.5 	"></polygon><polygon class="st2" points="350.7,126.9 350.8,136.4 350.8,141 344,137.4 343.9,132.8 343.9,123.3 	"></polygon><path class="st2" d="M372.4,177c1.5,2.9,2.3,6.2,2.3,9.5c0.1,1.8-0.3,3.5-1.1,5.1c-0.7,1.2-1.8,2-3.1,2.4c-1.5,0.4-3.1,0.4-4.5,0
		c-1-0.2-1.9-0.5-2.8-0.8v-6.4l-6.8-3.6v6.6l-5.1-2.7v-6.6l-6.8-3.6v6.6l-5.4-2.8l1,0.5v-8.4l-1-0.5l-0.3-33.8l1,0.5v-8.4l4.2,2.3
		v4.6l6.8,3.6v-4.6l5.1,2.7v4.6l6.8,3.6v-4.6c1.4,0.8,2.7,1.9,3.8,3.2c1.2,1.4,2.3,3,3.2,4.6c0.9,1.7,1.6,3.4,2.1,5.2
		c0.5,1.6,0.7,3.3,0.8,5.1c0.1,2.1-0.5,4.3-1.6,6.1c-1,1.6-2.8,2.5-4.7,2.3C368.8,171.3,370.9,174,372.4,177z M365.5,182.4
		c0.3-0.8,0.5-1.6,0.5-2.4c0-1-0.2-1.9-0.4-2.8c-0.3-1-0.6-1.9-1.1-2.8c-0.5-0.8-1-1.6-1.6-2.3c-0.6-0.7-1.3-1.2-2.1-1.6l-13.3-7
		l0.1,13.3l12.9,6.8c0.7,0.4,1.4,0.6,2.2,0.7c0.6,0,1.2-0.1,1.8-0.4c0.5-0.4,0.9-0.9,1.2-1.5 M347.3,142.9l0.1,12.8l11.5,6.1
		c1.1,0.8,2.5,0.9,3.7,0.3c1-0.6,1.5-1.9,1.5-3.9c0-1.9-0.5-3.7-1.4-5.4c-0.8-1.5-2-2.7-3.5-3.6L347.3,142.9"></path><polygon class="st2" points="362.6,133.2 362.7,142.7 362.8,147.3 356,143.7 355.9,139.1 355.8,129.6 	"></polygon></g><g id="stat2"><path class="st3" d="M111.6,192.8l51.1-28.1c2-1.1,3.2-3.2,3.2-5.5V65.7c0-3.4-2.8-6.2-6.2-6.2h0c-1.1,0-2.2,0.3-3.1,0.8
		l-51.1,29.5c-1.9,1.1-3.1,3.2-3.1,5.4v92.1c0,3.4,2.8,6.2,6.2,6.3C109.6,193.6,110.6,193.3,111.6,192.8z"></path><path class="st4" d="M114.7,127.6v22.5c0,6.5,10.1,6.5,10.1,0v-22.5C124.8,121.1,114.7,121.1,114.7,127.6z"></path><path class="st5" d="M128.4,104.7v36.1c0,6.5,10.1,6.5,10.1,0v-36.1C138.5,98.1,128.4,98.1,128.4,104.7z"></path><path class="st6" d="M144.7,78.4V134c0,6.5,10.1,6.5,10.1,0V78.4C154.8,71.9,144.7,71.9,144.7,78.4z"></path><path class="st6" d="M132.1,156.3l-12.5,6.6c-1.8,0.9-0.2,3.6,1.6,2.7l12.5-6.6C135.5,158.1,133.9,155.4,132.1,156.3z"></path><path class="st6" d="M154.1,154.7c-11.6,6.2-23.4,12.2-35.2,18c-1.8,0.9-0.2,3.6,1.6,2.7c11.9-5.8,23.6-11.8,35.2-18
		c0.7-0.6,0.8-1.6,0.2-2.2C155.4,154.6,154.7,154.4,154.1,154.7z"></path></g><g id="stat1"><path class="st3" d="M36.9,259.8l51.4-28.2c2-1.1,3.3-3.2,3.3-5.5v-94.2c0-3.5-2.8-6.3-6.3-6.3c-1.1,0-2.2,0.3-3.2,0.8l-51.4,29.7
		c-1.9,1.1-3.1,3.2-3.1,5.4v92.7c-0.1,3.5,2.7,6.3,6.2,6.4C34.9,260.6,35.9,260.4,36.9,259.8z"></path><path class="st4" d="M56,169.4c3-3.1,6.3-4.8,9.4-4.8c0.6,0,1.2,0.1,1.7,0.2c2.4,0.6,4.4,2,5.8,4c1.4-1.9,2.8-3.7,4.4-5.4
		c-2.3-2.7-5.4-4.5-8.8-5.3c-5.9-1.2-12.1,1.1-17.5,6.5c-1.6,1.6-3,3.4-4.2,5.4c2,1.2,3.8,2.4,5.8,3.7
		C53.6,172.2,54.7,170.7,56,169.4z"></path><path class="st5" d="M56,217.7c-3.3-1-6-4-7.7-8.6c-2-6.2-2.3-12.8-0.8-19.1c0.8-4.1,2.3-8,4.4-11.6c-1.9-1.3-3.8-2.5-5.8-3.7
		c-2.5,4.3-4.3,9-5.3,13.8c-1.7,7.6-1.4,15.5,1.2,22.9c2.4,6.6,6.6,11,11.9,12.6C54.5,222,55.2,219.8,56,217.7z"></path><path class="st6" d="M81.9,174.7c-0.9-2.4-2.1-4.6-3.6-6.6c-1.6,1.8-3.1,3.7-4.5,5.6c0.6,1.1,1.2,2.2,1.6,3.4
		c3.9,12.6,1,26.2-7.7,36.1c-3.4,3.5-7,5.1-10.3,4.7c-0.9,2.1-1.6,4.4-2.3,6.6l0,0c1,0.2,2.1,0.3,3.2,0.3c4.9,0,9.9-2.4,14.3-6.9
		C83.2,206.1,86.6,189.7,81.9,174.7L81.9,174.7z"></path><ellipse class="st6" transform="matrix(0.1106 -0.9939 0.9939 0.1106 -133.3116 234.6745)" cx="64.5" cy="191.8" rx="7.8" ry="4.3"></ellipse><path class="st6" d="M82.3,226.2l-32,16.1c-0.5,0.3-0.7,0.9-0.5,1.5s0.9,0.7,1.5,0.5l32-16.1c0.6-0.3,0.8-0.9,0.5-1.5
		S82.8,225.8,82.3,226.2L82.3,226.2L82.3,226.2z"></path><path class="st6" d="M82.3,221.2l-32,16.1c-0.5,0.3-0.7,0.9-0.5,1.5s0.9,0.7,1.5,0.5l32-16.1c0.5-0.3,0.7-0.9,0.5-1.5
		S82.8,221,82.3,221.2L82.3,221.2z"></path></g><g id="plant"><linearGradient id="SVGID_1_" gradientUnits="userSpaceOnUse" x1="449.3306" y1="-608.5892" x2="388.4706" y2="-559.0593" gradientTransform="matrix(1 0 0 1 0 896.12)"><stop offset="0" style="stop-color: rgb(212, 163, 151);"></stop><stop offset="1" style="stop-color: rgb(254, 233, 212);"></stop></linearGradient><path class="st7" d="M419,309l-49.5,24c7.3,4.9,15,9.1,23,12.6l50.5-33.6"></path><path class="st4" d="M414.3,263.3c-0.1-0.1-0.2-0.3-0.3-0.4c-2.1-1.1-4.2-2.1-6.4-3c-0.7-0.5-1.4-1-2-1.4c-0.2,0.3-0.6,0.4-0.9,0.4
		c-3.2-0.1-6.3-0.4-9.4-1.1c-0.1,0.3-0.3,0.5-0.3,0.8c2.8,3.3,4.7,7.2,5.5,11.5c0.6,0.7,1.2,1.4,2,2.2c3.1,1.2,7.4,1,10.9,1.4
		c0.2-0.4,0.3-0.7,0.4-1.1h0.2c1.2,0.4,2.4,1,3.5,1.5c2.3,0.3,4.6,1.3,6.5,2.7c0.5-0.2,1-0.5,1.4-0.9
		C421.5,271.8,418.3,267.2,414.3,263.3z"></path><path class="st4" d="M432.5,266.7l8.8-6.9c0,0,11.9-3.8,11.7-16.5s-4-16.1-4-16.1S434.2,249.4,432.5,266.7z"></path><path class="st3" d="M413.9,290.9l4.5,21c0.3,1.4,1.2,2.6,2.5,3.2c2.6,1.3,8,2.6,18.2,0.8c1.9-0.3,3.4-1.8,3.8-3.6l4.6-21.3"></path><ellipse class="st8" cx="430.7" cy="290.9" rx="16.8" ry="6.9"></ellipse><path class="st4" d="M453.9,239c-0.4-5.1-3.7-9.6-3.2-14.7c0.1-0.9-1.2-1.1-1.6-0.4c-8.7,12.8-14.4,27.5-16.5,42.9
		c-0.1,0.2-0.1,0.4-0.1,0.6c-0.9,6.9-1.1,13.8-0.6,20.7c0.6,0,1.2-0.1,1.8-0.3c-0.5-6.8-0.2-13.6,0.7-20.3c3-3.5,7.2-5.2,10.8-8
		c3.1-2.4,5.5-5.5,7-9.1C453.5,246.7,454.1,242.9,453.9,239z M450.3,249.6c-1.9,4.2-5,7.8-9,10.2c-1.7,1-3.3,2-4.9,3.2
		c3.2-6.3,6-12.8,8.3-19.5c0.4-1.1-1.4-1.5-1.7-0.5c-2.2,6.3-4.8,12.4-7.7,18.4c2.4-12.2,7.1-23.8,13.8-34.3
		c0.4,2.9,1.8,5.5,2.6,8.4C452.7,240.3,452.3,245.2,450.3,249.6L450.3,249.6z"></path><path class="st4" d="M430.9,288.1c-1.4-3.6-2.8-7.3-4.4-10.8c0-0.3-0.1-0.7-0.4-0.9l0,0c-2.1-4.3-4.9-8.2-8.3-11.6
		c-6.7-6.4-15.4-7.9-24.3-8.9c-0.9-0.1-1.1,1-0.5,1.5c0.1,0.2,0.2,0.4,0.4,0.5c5.3,3.3,3.7,11.6,9.3,14.7c2.6,1.4,5.8,1,8.7,1.1
		c3.8,0.1,7.6,0.9,11,2.5c3,3.3,5.1,7.4,6,11.8C429.2,288.1,430,288.1,430.9,288.1z M406.5,263.9c-1.1-0.4-1.5,1.3-0.5,1.7
		c4.7,1.7,9.1,4.2,12.9,7.4c-0.9-0.3-1.9-0.5-2.8-0.6c-3.7-0.6-9.4,0.6-12.7-1.4c-4.6-2.7-4.2-9.2-7.5-13.1c8,1.1,15.6,3,21.5,9
		c2.1,2.2,4,4.7,5.5,7.4C418.4,269.6,412.7,266,406.5,263.9L406.5,263.9z"></path></g><g id="centre_coins"><linearGradient id="SVGID_00000160904192727030910040000008502094272635430274_" gradientUnits="userSpaceOnUse" x1="188.4904" y1="-588.3099" x2="155.9003" y2="-534.6298" gradientTransform="matrix(1 0 0 1 0 896.12)"><stop offset="0" style="stop-color: rgb(212, 163, 151);"></stop><stop offset="1" style="stop-color: rgb(254, 233, 212);"></stop></linearGradient><path d="M140.2,303.8l-63.8,35
		c0,0,95.9,58.9,107.3,63.7l64.1-38.7" style="fill: url(&quot;#SVGID_00000160904192727030910040000008502094272635430274_&quot;);"></path><path class="st4" d="M140.4,303.5l104.5,60.2c0.9,0.5,2.1,0.5,3,0l102.2-58c1.4-0.9,1.9-2.7,1-4.1c-0.3-0.4-0.6-0.8-1-1
		l-106.3-60.9c-0.9-0.5-2.1-0.5-3,0l-100.4,58.6c-1.4,0.9-1.9,2.7-1,4.1C139.6,302.9,139.9,303.3,140.4,303.5L140.4,303.5z"></path><path class="st10" d="M140.4,303.5l104.5,60.2c0.9,0.5,2.1,0.5,3,0l102.2-58c1.4-0.9,1.9-2.7,1-4.1c-0.3-0.4-0.6-0.8-1-1
		l-106.3-60.9c-0.9-0.5-2.1-0.5-3,0l-100.4,58.6c-1.4,0.9-1.9,2.7-1,4.1C139.6,302.9,139.9,303.3,140.4,303.5L140.4,303.5z"></path><path class="st3" d="M141.2,288.2l104.5,60.2c0.9,0.5,2,0.5,2.9,0l102.2-58c1.4-0.8,1.9-2.6,1.1-4c-0.3-0.5-0.6-0.8-1.1-1.1
		l-106.3-60.9c-0.9-0.5-2.1-0.5-3,0l-100.4,58.6c-1.4,0.9-1.9,2.7-1,4.1C140.4,287.6,140.7,288,141.2,288.2L141.2,288.2z"></path><linearGradient id="SVGID_00000121262591269571878510000002660890354903365761_" gradientUnits="userSpaceOnUse" x1="244.3448" y1="-718.8301" x2="241.1748" y2="-548.5502" gradientTransform="matrix(1 0 0 1 0 896.12)"><stop offset="0" style="stop-color: rgb(255, 255, 255); stop-opacity: 0;"></stop><stop offset="0.13" style="stop-color: rgb(217, 248, 255); stop-opacity: 0.25;"></stop><stop offset="0.27" style="stop-color: rgb(183, 241, 254); stop-opacity: 0.47;"></stop><stop offset="0.4" style="stop-color: rgb(155, 235, 254); stop-opacity: 0.66;"></stop><stop offset="0.52" style="stop-color: rgb(133, 231, 253); stop-opacity: 0.81;"></stop><stop offset="0.64" style="stop-color: rgb(117, 228, 253); stop-opacity: 0.91;"></stop><stop offset="0.74" style="stop-color: rgb(107, 226, 253); stop-opacity: 0.98;"></stop><stop offset="0.82" style="stop-color: rgb(104, 225, 253);"></stop></linearGradient><polygon points="
		348.6,282.6 346,119.5 242.5,79.6 138.9,139.1 138.9,280.4 246.3,340.7 	" style="opacity: 0.33; fill: url(&quot;#SVGID_00000121262591269571878510000002660890354903365761_&quot;);"></polygon><polyline class="st8" points="236.6,199.9 232.8,208.3 178.9,188.2 176.2,180.8 179.4,173.9 179.4,179 	"></polyline><path class="st8" d="M196.5,210.2c-15.4-7.9-24.6-21.3-19.9-30.1s21.7-10.1,36.9-2.2s23.9,21.5,19.3,30.3S210.8,217.5,196.5,210.2z
		"></path><path class="st12" d="M218.1,208.2l-3.1,7c0,0-9.8-0.5-15.4-3.6l3.1-7.1"></path><path class="st2" d="M199.8,203.2c-15.4-7.9-24.6-21.3-19.9-30.1s21.7-10.1,36.9-2.2s23.9,21.5,19.3,30.3S214.1,210.4,199.8,203.2z
		"></path><ellipse class="st1" transform="matrix(0.4627 -0.8865 0.8865 0.4627 -53.6747 284.6315)" cx="208" cy="186.6" rx="14.7" ry="25.5"></ellipse><path class="st12" d="M190.2,172.2c8.8-2.8,18,0.7,25.6,4.9s16.1,11.4,14.9,20.8c3.3-7.2-3.8-18-16-24.4
		c-12.5-6.5-25.6-5.9-29.4,1.2l-0.2,0.4C186.6,173.8,188.3,172.8,190.2,172.2z"></path><polygon class="st12" points="210,181.2 208.9,183.7 207.1,181.4 208.1,178.9 	"></polygon><polygon class="st12" points="208.5,178.8 207.5,181.4 207.1,181.4 208.1,178.9 	"></polygon><polygon class="st12" points="212.3,180.8 211.3,183.3 209.3,183.7 210.4,181.1 	"></polygon><polygon class="st12" points="210.4,181.1 209.3,183.7 208.9,183.7 210,181.2 	"></polygon><polygon class="st12" points="207.9,181 206.8,183.6 205.4,181.7 206.4,179.1 	"></polygon><polygon class="st12" points="203.8,179.6 202.8,182.2 201.2,180.2 202.2,177.6 	"></polygon><polygon class="st12" points="207.9,181 206.8,183.6 204.2,184 205.2,181.4 	"></polygon><polygon class="st12" points="205.2,181.4 204.2,184 202.8,182.2 203.8,179.6 	"></polygon><polygon class="st12" points="203.2,181.8 202.2,184.4 200.8,182.5 201.8,179.9 	"></polygon><polygon class="st12" points="199.2,180.4 198.1,183 196.6,181 197.6,178.4 	"></polygon><polygon class="st12" points="209.9,185.3 208.8,187.9 205.9,184.2 207,181.6 	"></polygon><polygon class="st12" points="203.2,181.8 202.2,184.4 199.5,184.8 200.6,182.2 	"></polygon><polygon class="st12" points="207,181.6 205.9,184.2 200.9,185.1 202,182.5 	"></polygon><polygon class="st12" points="200.6,182.2 199.5,184.8 198.1,183 199.2,180.4 	"></polygon><path class="st12" d="M199.8,185.9l1-2.6c0.1-0.2,0.2-0.4,0.4-0.5c0.2-0.1,0.5-0.2,0.8-0.3l-1,2.6c-0.3,0-0.5,0.1-0.8,0.3
		C200.1,185.5,199.9,185.7,199.8,185.9z"></path><polygon class="st12" points="219.1,192.8 218,195.4 216.2,193.1 217.2,190.5 	"></polygon><polygon class="st12" points="217.6,190.4 216.6,193 216.2,193.1 217.2,190.5 	"></polygon><polygon class="st12" points="221.9,192.3 220.9,194.9 218,195.4 219.1,192.8 	"></polygon><polygon class="st12" points="219.1,192.8 218,195.4 218,195.4 219.1,192.8 	"></polygon><polygon class="st12" points="214.3,191 213.2,193.6 210.5,190.1 211.5,187.5 	"></polygon><polygon class="st12" points="211.5,187.5 210.5,190.1 206,190.8 207,188.2 	"></polygon><polygon class="st12" points="217.3,193.1 216.3,195.7 215.3,194.4 216.3,191.8 	"></polygon><polygon class="st12" points="219.1,192.8 218,195.4 216.3,195.7 217.3,193.1 	"></polygon><path class="st12" d="M207,188.3l-1,2.6c-0.5,0-0.9,0.3-1.1,0.7l1-2.6C206.1,188.6,206.5,188.3,207,188.3z"></path><polygon class="st12" points="216.3,191.8 215.3,194.4 212.7,194.9 213.7,192.3 	"></polygon><path class="st12" d="M195.7,184.8l1-2.6c-0.1,0.3-0.1,0.6-0.1,0.9c0.1,0.6,0.4,1.2,0.8,1.6c0.7,0.9,1.6,1.6,2.6,2.1l-1,2.6
		c-1-0.5-1.9-1.2-2.6-2.1c-0.4-0.5-0.7-1-0.8-1.6C195.6,185.4,195.6,185.1,195.7,184.8z"></path><path class="st12" d="M203.4,187.8l-1,2.6c-1.2-0.1-2.3-0.4-3.3-0.9l1-2.6C201.1,187.4,202.2,187.7,203.4,187.8z"></path><polygon class="st12" points="214.7,193.6 213.7,196.1 212.7,194.9 213.7,192.3 	"></polygon><polygon class="st12" points="214.7,193.6 213.7,196.1 211.7,196.5 212.7,193.9 	"></polygon><polygon class="st12" points="212.7,193.9 211.7,196.5 210.7,195.2 211.7,192.6 	"></polygon><polygon class="st12" points="211.7,192.6 210.7,195.2 208,195.7 209,193.1 	"></polygon><polygon class="st12" points="216.7,196.2 215.7,198.7 213.7,196.1 214.7,193.6 	"></polygon><polygon class="st12" points="219.4,195.7 218.4,198.3 215.7,198.7 216.7,196.2 	"></polygon><polygon class="st12" points="210,194.4 209,196.9 208,195.7 209,193.1 	"></polygon><path class="st12" d="M201.7,191.2l1-2.6c-0.1,0.3-0.1,0.5-0.1,0.8c0.1,0.7,0.4,1.4,0.9,2c0.4,0.5,0.8,0.9,1.3,1.2
		c0.5,0.4,1.1,0.7,1.7,1c0.6,0.3,1.2,0.5,1.9,0.6c0.6,0.1,1.2,0.1,1.7,0l-1,2.6c-0.6,0.1-1.2,0.1-1.7,0c-0.6-0.1-1.3-0.3-1.9-0.6
		c-0.6-0.3-1.2-0.6-1.7-1c-0.5-0.4-0.9-0.8-1.3-1.2c-0.5-0.6-0.8-1.3-0.9-2C201.5,191.7,201.6,191.5,201.7,191.2z"></path><polygon class="st12" points="214.7,196.5 213.7,199.1 211,199.5 212.1,197 	"></polygon><polygon class="st2" points="210,181.2 208.1,178.9 208.5,178.8 211,178.4 212.3,180.8 210.4,181.1 	"></polygon><polygon class="st2" points="205.2,181.4 203.8,179.6 202.2,177.6 204.9,177.2 206.4,179.1 207.9,181 	"></polygon><polygon class="st2" points="200.6,182.2 199.2,180.4 197.6,178.4 200.3,178 201.8,179.9 203.2,181.8 	"></polygon><polygon class="st2" points="219.1,192.8 219.1,192.8 217.2,190.5 217.6,190.4 219.6,190.1 221.9,192.3 	"></polygon><polygon class="st2" points="216.7,196.2 214.7,193.6 213.7,192.3 216.3,191.8 217.3,193.1 219.4,195.7 	"></polygon><path class="st2" d="M200.1,186.9c-1-0.5-1.9-1.2-2.6-2.1c-0.4-0.5-0.7-1-0.8-1.6c-0.1-0.5,0.1-1,0.3-1.3c0.3-0.4,0.7-0.8,1.2-1
		c0.3-0.2,0.7-0.3,1-0.4l1.4,1.8l2.6-0.4l-1.4-1.8l2-0.3l1.4,1.8l2.7-0.4l-1.4-1.8l2.1-0.4h-0.4l1.8,2.3h0.4l7.3,9.3h-0.4l1.8,2.3
		l-1.7,0.3l-1-1.3l-2.6,0.4l1,1.3l-2,0.3l-1-1.3l-2.6,0.4l1,1.3c-0.6,0.1-1.2,0.1-1.7,0c-0.6-0.1-1.3-0.3-1.9-0.6
		c-0.6-0.3-1.2-0.6-1.7-1c-0.5-0.4-0.9-0.8-1.3-1.2c-0.5-0.6-0.8-1.3-0.9-2c-0.1-0.7,0.3-1.3,0.8-1.6
		C202.3,187.7,201.1,187.4,200.1,186.9z M200.8,183.9c0.1,0.3,0.2,0.5,0.4,0.7c0.2,0.3,0.4,0.5,0.7,0.7c0.3,0.2,0.6,0.4,0.9,0.5
		c0.3,0.1,0.7,0.2,1,0.3c0.3,0.1,0.6,0.1,0.9,0l5.2-0.9l-2.8-3.7l-5,0.9c-0.3,0-0.5,0.1-0.8,0.3c-0.2,0.1-0.3,0.3-0.4,0.5
		c-0.1,0.2-0.1,0.4,0,0.7 M214.4,190.9l-2.8-3.5l-4.5,0.8c-0.5,0-0.9,0.3-1.1,0.7c-0.1,0.5,0,1,0.4,1.4c0.4,0.5,0.9,0.9,1.6,1.2
		c0.5,0.2,1.1,0.3,1.7,0.2L214.4,190.9"></path><polygon class="st2" points="212.1,197 210,194.4 209,193.1 211.7,192.6 212.7,193.9 214.7,196.5 	"></polygon><polygon class="st12" points="212.1,197 211,199.5 209,196.9 210,194.4 	"></polygon><polyline class="st8" points="285.5,226.6 295,235.2 246.3,298.3 235.4,298.9 227.6,291.8 234.3,293.9 	"></polyline><path class="st8" d="M282.7,284.1c-16.7,17.3-38.3,23.9-48.1,14.1s-4.6-32.9,12.2-49.9s38.3-22.8,48.1-13.2
		S298.2,268.1,282.7,284.1z"></path><path class="st12" d="M288.9,254.6l8.1,7c0,0-4.7,12.9-11.1,19l-8.2-7"></path><path class="st2" d="M274.7,276.8c-16.7,17.3-38.3,23.9-48.1,14.2s-4.6-32.9,12.2-49.9s38.3-22.8,48.1-13.2
		S290.2,260.9,274.7,276.8z"></path><ellipse class="st1" transform="matrix(0.7038 -0.7104 0.7104 0.7038 -108.2579 258.6905)" cx="256.1" cy="259.2" rx="35.3" ry="20.4"></ellipse><path class="st12" d="M229.7,276.8c-0.1-12.8,8.2-23.5,17-31.9s21.7-16.7,33.7-11.2c-8.2-7.3-25.4-2.4-38.9,11.2
		c-13.7,13.9-18.4,31.5-10.4,39.4l0.4,0.4C230.3,282.2,229.7,279.5,229.7,276.8z"></path><polygon class="st12" points="249.7,254.3 252.7,256.7 248.9,258.1 245.9,255.7 	"></polygon><polygon class="st12" points="245.9,255.2 248.9,257.6 248.9,258.1 245.9,255.7 	"></polygon><polygon class="st12" points="250.1,251 253.1,253.4 252.8,256.1 249.8,253.7 	"></polygon><polygon class="st12" points="249.8,253.7 252.8,256.1 252.7,256.7 249.7,254.3 	"></polygon><polygon class="st12" points="248.6,257 251.6,259.4 248.6,260.5 245.6,258.1 	"></polygon><polygon class="st12" points="245.1,261.8 248.1,264.2 244.9,265.5 241.9,263 	"></polygon><polygon class="st12" points="248.6,257 251.6,259.4 251.1,263.1 248.1,260.7 	"></polygon><polygon class="st12" points="248.1,260.7 251.1,263.1 248.1,264.2 245.1,261.8 	"></polygon><polygon class="st12" points="247.7,263.5 250.7,265.9 247.7,267 244.7,264.6 	"></polygon><polygon class="st12" points="244.3,268.3 247.3,270.7 244,272 241,269.5 	"></polygon><polygon class="st12" points="255.2,256.2 258.2,258.6 252.1,260.9 249.1,258.4 	"></polygon><polygon class="st12" points="247.7,263.5 250.7,265.9 250.2,269.6 247.2,267.2 	"></polygon><polygon class="st12" points="249.1,258.4 252.1,260.9 251.2,267.9 248.2,265.4 	"></polygon><polygon class="st12" points="247.2,267.2 250.2,269.6 247.3,270.7 244.3,268.3 	"></polygon><path class="st12" d="M251.8,269.7l-3-2.4c-0.2-0.2-0.4-0.4-0.5-0.7c-0.1-0.4-0.1-0.8-0.1-1.1l3,2.4c-0.1,0.4,0,0.8,0.1,1.1
		C251.4,269.2,251.5,269.5,251.8,269.7z"></path><polygon class="st12" points="268.9,247 271.9,249.4 268,250.9 265,248.5 	"></polygon><polygon class="st12" points="265.1,247.9 268.1,250.3 268,250.9 265,248.5 	"></polygon><polygon class="st12" points="269.4,243 272.4,245.4 271.9,249.4 268.9,247 	"></polygon><polygon class="st12" points="268.9,247 271.9,249.4 271.9,249.4 268.9,247 	"></polygon><polygon class="st12" points="264.5,252.6 267.5,255 261.7,257.2 258.7,254.8 	"></polygon><polygon class="st12" points="258.7,254.8 261.7,257.2 260.9,263.5 257.9,261.1 	"></polygon><polygon class="st12" points="268.5,249.4 271.5,251.8 269.4,252.6 266.4,250.2 	"></polygon><polygon class="st12" points="268.9,247 271.9,249.4 271.5,251.8 268.5,249.4 	"></polygon><path class="st12" d="M257.9,261.1l3,2.4c-0.2,0.6,0,1.3,0.5,1.7l-3-2.4C257.9,262.4,257.7,261.7,257.9,261.1z"></path><polygon class="st12" points="266.4,250.2 269.4,252.6 269,256.3 266,253.9 	"></polygon><path class="st12" d="M248.7,274.7l-3-2.4c0.3,0.3,0.7,0.5,1.2,0.5c0.8,0.1,1.7,0,2.5-0.4c1.5-0.6,2.8-1.5,3.9-2.6l3,2.4
		c-1.1,1.2-2.4,2.1-3.9,2.6c-0.8,0.3-1.6,0.5-2.5,0.4C249.4,275.1,249,274.9,248.7,274.7z"></path><path class="st12" d="M255.8,265.7l3,2.4c-0.6,1.5-1.4,2.9-2.5,4.1l-3-2.4C254.4,268.6,255.2,267.2,255.8,265.7z"></path><polygon class="st12" points="268,253.1 271,255.5 269,256.3 266,253.9 	"></polygon><polygon class="st12" points="268,253.1 271,255.5 270.7,258.3 267.7,255.9 	"></polygon><polygon class="st12" points="267.7,255.9 270.7,258.3 268.6,259.1 265.6,256.7 	"></polygon><polygon class="st12" points="265.6,256.7 268.6,259.1 268.1,262.8 265.1,260.4 	"></polygon><polygon class="st12" points="272.3,251.5 275.3,253.9 271,255.5 268,253.1 	"></polygon><polygon class="st12" points="272.8,247.8 275.8,250.2 275.3,253.9 272.3,251.5 	"></polygon><polygon class="st12" points="267.2,259.6 270.2,262 268.1,262.8 265.1,260.4 	"></polygon><path class="st12" d="M259.6,269.4l-3-2.4c0.3,0.2,0.6,0.4,1,0.5c1,0.2,2.1,0.1,3-0.3c0.8-0.3,1.5-0.7,2.2-1.2
		c0.7-0.5,1.4-1.1,2-1.8c0.6-0.7,1.1-1.4,1.6-2.2c0.4-0.7,0.7-1.5,0.8-2.3l3,2.4c-0.1,0.8-0.4,1.6-0.8,2.3c-0.4,0.8-1,1.6-1.6,2.2
		c-0.6,0.7-1.3,1.3-2,1.8c-0.7,0.5-1.4,0.9-2.2,1.2c-0.9,0.4-2,0.5-3,0.3C260.3,269.8,259.9,269.6,259.6,269.4z"></path><polygon class="st12" points="272,254.3 275,256.7 274.5,260.4 271.5,258 	"></polygon><polygon class="st2" points="249.7,254.3 245.9,255.7 246,255.2 246.4,251.7 250.1,251 249.8,253.7 	"></polygon><polygon class="st2" points="248.1,260.7 245.1,261.8 241.9,263 242.4,259.3 245.6,258.1 248.6,257 	"></polygon><polygon class="st2" points="247.2,267.2 244.3,268.3 241,269.5 241.5,265.8 244.7,264.6 247.7,263.5 	"></polygon><polygon class="st2" points="268.9,247 268.9,247 265,248.5 265.1,247.9 265.5,245.1 269.4,243 	"></polygon><polygon class="st2" points="272.3,251.5 268,253.1 266,253.9 266.4,250.2 268.5,249.4 272.8,247.8 	"></polygon><path class="st2" d="M253.3,269.8c-1.1,1.2-2.4,2.1-3.9,2.6c-0.8,0.3-1.6,0.5-2.5,0.4c-0.7-0.1-1.2-0.5-1.6-1
		c-0.4-0.6-0.7-1.3-0.8-2c-0.1-0.5-0.1-0.9-0.1-1.4l2.9-1.1l0.5-3.7l-3,1.1l0.4-2.8l3-1.1l0.5-3.7l-3,1.1l0.4-2.9v0.6l3.8-1.4
		l0.1-0.6l15.3-5.8l-0.1,0.5l3.8-1.4l-0.3,2.4l-2.1,0.8L266,254l2.1-0.8l-0.4,2.8l-2.1,0.8l-0.5,3.7l2.1-0.8
		c-0.1,0.8-0.4,1.6-0.8,2.3c-0.4,0.8-1,1.6-1.6,2.2c-0.6,0.7-1.3,1.3-2,1.8c-0.7,0.5-1.4,0.9-2.2,1.2c-0.9,0.4-2,0.5-3,0.3
		c-0.9-0.2-1.6-0.9-1.8-1.8C255.3,267.3,254.4,268.6,253.3,269.8z M249.7,267.6c0.4,0,0.8-0.1,1.1-0.2c0.4-0.2,0.8-0.4,1.2-0.7
		c0.4-0.3,0.7-0.6,1.1-1c0.3-0.3,0.6-0.7,0.8-1.1c0.2-0.4,0.3-0.8,0.4-1.2l0.9-7.2l-6.1,2.3l-0.9,7c-0.1,0.4,0,0.8,0.1,1.1
		c0.1,0.3,0.3,0.5,0.5,0.7C249,267.4,249.3,267.5,249.7,267.6 M264.5,252.5l-5.8,2.2l-0.8,6.3c-0.2,0.6,0,1.3,0.5,1.7
		c0.6,0.4,1.4,0.4,2,0c0.9-0.3,1.6-0.9,2.2-1.6c0.5-0.6,0.9-1.4,1-2.2L264.5,252.5"></path><polygon class="st2" points="271.5,258 267.2,259.6 265.1,260.4 265.6,256.7 267.7,255.9 272,254.3 	"></polygon><polygon class="st12" points="271.5,258 274.5,260.4 270.2,262 267.2,259.6 	"></polygon><ellipse class="st13" cx="250.2" cy="314.2" rx="24.5" ry="8.2"></ellipse><ellipse class="st13" cx="203.1" cy="262.5" rx="14.9" ry="5"></ellipse></g></svg>