<svg transform="scale(1)" version="1.1" id="Layer_1" xmlns="http://www.w3.org/2000/svg" xmlns:xlink="http://www.w3.org/1999/xlink" x="0px" y="0px" viewBox="0 0 500 500" xml:space="preserve" class="show_show__wrapper__graphic__5Waiy "><title>React</title><style type="text/css">
	.st0{fill:#D9E021;}
	.st1{opacity:0.32;fill:url(#SVGID_1_);enable-background:new    ;}
	.st2{opacity:0.32;fill:url(#SVGID_00000126305478932618475600000014306763769608809404_);enable-background:new    ;}
	.st3{fill:#F2AE16;}
	.st4{opacity:0.32;fill:url(#SVGID_00000062168972258695714540000016905906411543999647_);enable-background:new    ;}
	.st5{opacity:0.49;fill:#4A9E18;enable-background:new    ;}
	.st6{fill:#4A9E18;}
	.st7{fill:#42342D;}
	.st8{fill:#FFB7A2;}
	.st9{fill:#AF4E23;}
	.st10{fill:#F28F8F;}
	.st11{fill:#E87474;}
	.st12{fill:#FFD008;}
</style><polygon class="st0" id="Base" points="12.7,288.9 217.8,405.9 487.3,244.9 287.3,131.3 "></polygon><g id="Shadow"><linearGradient id="SVGID_1_" gradientUnits="userSpaceOnUse" x1="35.4189" y1="-861.022" x2="88.7589" y2="-890.1119" gradientTransform="matrix(1 0 0 1 0 1164.6299)"><stop offset="0" style="stop-color: rgb(255, 255, 255); stop-opacity: 0;"></stop><stop offset="0.97" style="stop-color: rgb(74, 158, 24);"></stop></linearGradient><path class="st1" d="M128.9,266.1c-0.2-0.3-0.2-0.7,0-1c0.2-0.4-5.1-1.4-4.9-1.8c0.2-0.9-3.1-1-2.9-1.9
		c-8.9-3.9-10.7-5.3-17.4-11.8l-71.2,39.7L61.7,306l66.7-37.9C128.6,267.4,128.8,266.8,128.9,266.1z"></path><linearGradient id="SVGID_00000083780461806451899640000009570202135608889997_" gradientUnits="userSpaceOnUse" x1="263.7389" y1="-811.502" x2="315.3889" y2="-839.6821" gradientTransform="matrix(1 0 0 1 0 1164.6299)"><stop offset="0" style="stop-color: rgb(255, 255, 255); stop-opacity: 0;"></stop><stop offset="0.97" style="stop-color: rgb(74, 158, 24);"></stop></linearGradient><path d="
		M353.9,316.2c-0.2-0.3-0.2-0.7,0-1c0.2-0.4-5.1-1.4-4.9-1.8c0.3-0.9-3.1-1-2.9-1.9c-8.9-3.9-10.7-5.3-17.5-11.8l-66.3,42.5
		l26.6,15.2l64.4-39.2C353.6,317.5,353.8,316.8,353.9,316.2z" style="opacity: 0.32; fill: url(&quot;#SVGID_00000083780461806451899640000009570202135608889997_&quot;);"></path><polyline class="st3" points="421.7,224.6 205.8,373.1 71.6,302.3 172.8,247.1 	"></polyline><linearGradient id="SVGID_00000142178299390200449180000000803450444525108908_" gradientUnits="userSpaceOnUse" x1="337.1856" y1="-856.8296" x2="389.5056" y2="-885.3596" gradientTransform="matrix(1 0 0 1 0 1164.6299)"><stop offset="0" style="stop-color: rgb(255, 255, 255); stop-opacity: 0;"></stop><stop offset="0.97" style="stop-color: rgb(74, 158, 24);"></stop></linearGradient><path d="
		M428.2,269.7c-0.2-0.3-0.2-0.7,0-1c0.2-0.4-5.1-1.4-4.9-1.8c0.2-0.9-3.1-1-2.9-1.9c-8.9-3.9-10.7-5.3-17.4-11.8l-66.2,45.2
		l25.9,14.1l65.1-40.9C427.9,271,428,270.4,428.2,269.7z" style="opacity: 0.32; fill: url(&quot;#SVGID_00000142178299390200449180000000803450444525108908_&quot;);"></path><polyline class="st5" points="421.7,224.6 205.8,373.1 71.6,302.3 172.8,247.1 	"></polyline></g><g id="Paper_Money"><path class="st6" d="M46.3,281.2L175,355.5c0,0,54.1-6.5,111.7-39.4s136.9-94,136.9-94l-118.3-68.4L138,252.5
		C138,252.5,91.7,275.1,46.3,281.2z"></path><path class="st7" d="M177.1,351.3L59,283.1l1.8-0.4c45.9-10.1,87.7-30.4,88.1-30.6l151.6-89.5l0.4,0.2l107.8,62.5l-0.8,0.6
		c-0.7,0.6-72.3,55.6-123.8,85s-106.1,40.3-106.6,40.4L177.1,351.3z M62.8,283.7l114.5,66.2c4.1-0.8,56.4-11.9,105.9-40.2
		c48.4-27.6,114.7-78,122.8-84.2l-105.7-61.2l-150.9,89.1C149.1,253.5,108.1,273.4,62.8,283.7z"></path></g><g id="Character"><path class="st8" d="M119.6,153.6c0.8-1.5,1.7-2.9,2.8-4.2c0.8-0.5,1.6-0.9,2.6-1c0.5,0.1,0,1.5,0,1.5s5.2-1.4,5.7-0.9
		s-0.5,2.2-1.5,3.3s-7.9,4.5-7.9,4.5L119.6,153.6z"></path><path class="st7" d="M130.2,149.4l3.5-6.2c0.1-0.2,0-0.5-0.2-0.6c-0.1-0.1-0.3-0.1-0.4,0l-4.9,2c-0.3,0.1-0.6,0.4-0.8,0.7l-3.3,5.8
		l0,0C126.1,150.4,128.2,150,130.2,149.4z"></path><path class="st7" d="M113.4,112.8c0,0-6.3-0.6-9.7,4.3s-11.1,23.2-9.1,24.8s12.8,3.3,18.2,1.8s5-13.9,5-13.9"></path><path class="st7" d="M115.3,240.5c0,0-0.3,9.4,1.4,12.2s10.3,7.6,8,9.6s-7.6,1-9.4-1.2c-1.2-1.5-2.2-3.2-3.2-4.8v3.5
		c0,0-3.6-2.1-3.6-2.3s-0.8-21.2-0.8-21.2"></path><path class="st7" d="M102.3,244.5c0,0-0.3,9.4,1.4,12.2c1.8,2.8,10.8,9.3,8.5,11.3s-7.6,0.2-9.8-2.6c-1.2-1.6-2.3-3.3-3.2-5.2v3.6
		c0,0-3.6-2.1-3.6-2.3s-0.8-21.1-0.8-21.1"></path><path class="st9" d="M119.3,165.3c0.4,1.2,4.7,70,0.2,78.8c-3.6,1.9-7.6,2.7-11.7,2.5l-1.4,5.1c0,0-10.9,3.4-18.7,0.1
		c0,0,3.8-71.7,9.3-84.9"></path><path class="st10" d="M120.9,150.8c0.1-1.9,0.2-3.8,0.2-5.7c0.1-3.4,0.8-8.1-1.6-10.9c-1.6-1.9-4.1-2.2-6.3-2.9
		c-0.9-0.3-1.9-0.5-2.9-0.5c-0.7,0.1-1.3,0.2-1.9,0.4c-2.3,0-5.4,1.9-7.6,3c-1.1,0.5-1.6,3.9-2.6,4.6c-2,4.7-2.4,5-2.5,10.2
		c-0.1,0.1-0.1,0.2-0.1,0.3c-0.5,1.6-0.2,7.2,0.2,12.4v0.3l0,0c0.2,2.4,0.4,4.8,0.6,6.6c7.3,2.9,15.5,1.9,23-0.4
		c0.6-0.2,0.8-8.3,0.9-9.2C120.6,156.2,120.8,153.6,120.9,150.8z"></path><path class="st8" d="M119.8,119.3c0.3,0.2-1.2,14.9-7.1,13.5c-3.6-0.6-6.2-3.9-5.7-7.5c0.1-1.2,2.9-4.4,3.8-5.6
		S118.4,118.6,119.8,119.3z"></path><path class="st7" d="M121.2,117.7c-0.8-3.7-7.3-6.5-13.3-3.7c-3.8,1.8-7.5,12-3.3,14.1s3.1,1.1,3.1,1.1c-0.1-0.3-0.1-0.5-0.2-0.8
		c0-0.1,0-0.2,0-0.3v-0.5c0.2-2.8,1.3-5.4,3.2-7.4c1.8-1.8,4.3-1.7,6.8-1.4c0.8,0,1.6,0.2,2.3,0.5l-0.4,3.8
		C121,121.8,121.7,119.7,121.2,117.7z"></path><path class="st7" d="M119.8,121.7l-5.5-0.4v-1.8l-1.1,1.9l-1.6-0.4c0,0-2.7,8.4-4,8.2s-1.8-4.3-1.4-6.5s3.1-6.4,7.4-6.4
		S120.8,117.7,119.8,121.7z"></path><path class="st11" d="M112,152.8c-2.1,0.6-4.3,1.1-6.4,1.4c-0.7,0-1.5-0.2-1.8-0.8c-0.1-0.3-0.1-0.5,0-0.8c0.2-2.9,0.5-5.9,1.1-8.8
		c0.4-2.6,0.8-6.1-0.4-8.5c-1.9-3.6-5.7-0.2-7.1,2c-2.3,3.6-2.6,8.8-2.8,13c-0.6,14.2,2.9,14.8,7.7,14.7s19.4-3.7,19.6-5.7
		c-0.3-2.5-1.1-4.9-2.3-7.1C119.1,151.2,115.4,152,112,152.8z"></path><path class="st7" d="M111.7,181.8c-0.7,21.6-2.2,43.2-4.5,64.8c-0.1,0.7,1,0.7,1,0c2.3-21.5,3.8-43.1,4.5-64.8
		C112.8,181.1,111.7,181.1,111.7,181.8z"></path></g><g id="Piggy_Bank"><path class="st9" d="M218.6,295c0,0,9.8,21.8,23.1,23.2s13.4-39.3,13.4-39.3S226.5,263,218.6,295z"></path><path class="st9" d="M290,247.8c0,0,9.8,21.8,23,23.2s13.4-39.3,13.4-39.3S297.9,215.8,290,247.8z"></path><path class="st9" d="M157.7,266.9c0,0,5.2,23.3,18,27.4s21-35.8,21-35.8S171.8,237.2,157.7,266.9z"></path><path class="st10" d="M150.6,253.9c10.9,31.5,46.2,45,77.1,44.4c39.4-0.7,79.2-26.9,96.6-62.7c16.7-34.1,7.9-73.1-24.3-93.7
		c-47.8-30.6-119.2-2.9-143,46.3c-9.4,19.4-13.6,43.9-6.7,64.8L150.6,253.9z"></path><path class="st11" d="M200.6,172.7l18.9,8.1l0,0c0,0,22.9-20.7,44.6-29.1l-20.3-7C243.7,144.7,218.5,155.6,200.6,172.7z"></path><polygon class="st9" points="243.7,144.7 243.1,162.8 249.2,159 264,151.7 	"></polygon><path class="st11" d="M301.6,142.2c-15.3-9.8-32.9-13.6-50.7-12.7c16.6,4.2,31.4,13.9,41.8,27.5c12.7,16.5,18.6,36.3,14.8,57.1
		c-3.9,21-15.7,40.4-30.7,55.3c-14.4,14.4-32.8,24.1-52.7,27.8c-2,0.4-4,0.7-6,1c3.7,0.3,7.4,0.5,11.1,0.4
		c39.4-0.7,79.2-26.9,96.6-62.7C342.5,201.8,333.8,162.8,301.6,142.2z"></path><ellipse class="st7" cx="165.5" cy="223.7" rx="3.7" ry="5.3"></ellipse><ellipse class="st7" cx="200.6" cy="235.4" rx="3.7" ry="5.3"></ellipse><ellipse class="st11" transform="matrix(0.5186 -0.855 0.855 0.5186 -127.7078 272.3904)" cx="178.1" cy="249.6" rx="14" ry="17.6"></ellipse><ellipse class="st8" transform="matrix(0.5186 -0.855 0.855 0.5186 -131.194 270.8562)" cx="174.9" cy="251.9" rx="14" ry="17.6"></ellipse><ellipse class="st7" cx="166.7" cy="249.5" rx="3.3" ry="3.4"></ellipse><ellipse class="st7" cx="180.5" cy="253.8" rx="3.3" ry="3.4"></ellipse></g><g id="Money_Bag"><path class="st3" d="M321.4,264.5c0,0,2.2-4.2,5.3-2.6s5,4.2,9.1,2.6s6.7-10.2,9.5-9s4.5,3.5,3.2,7.9s-0.7,5.3,1.1,5.9
		s-4.8,7-10,5.6S321.4,264.5,321.4,264.5z"></path><path class="st12" d="M326.1,277.9c0,0-13.6,14.5-10.6,29.9s38.1,16.7,43.1,4.8s0.3-28.2-7.4-33.8c0,0,6.4-6.7,3.7-11.3
		s-6.9,3.8-9.2,2.6s5-15-3-15.5s-5.8,14.2-9.2,13.4s-9.5-7.6-12.2-3.5S328,273.4,326.1,277.9z"></path><path class="st3" d="M351.3,278.9c0,0,6.4-6.8,3.7-11.3c-0.4-0.9-1.3-1.5-2.2-1.4c2,3.5-1.7,7.2-4.2,9.8c-1.2,1-2.2,2-3.2,3.2
		c-2.2,3.5,0.1,6.3,2.4,9c2.4,2.8,4.1,6.2,5.1,9.8c2.5,10.2-2.5,18.9-10.4,22.5c7.6-0.5,14.4-3.1,16.4-7.8
		C363.7,300.9,359,284.6,351.3,278.9z"></path><path class="st9" d="M349.7,276.2c-7.4,1.5-15.1,0.9-22.2-1.7c-2.5-0.9-3.6,3.1-1.1,4c7.8,2.9,16.3,3.4,24.4,1.7
		C353.5,279.7,352.3,275.7,349.7,276.2z"></path><path class="st6" d="M347.5,300.4c-0.5-2.4-2.8-3.5-5-3.7c-0.3,0-0.7,0-1,0V290c0.5,0.1,1.1,0.2,1.6,0.3c1,0.3,1.5-1.2,0.5-1.5
		c-0.7-0.2-1.4-0.3-2.1-0.3v-2.5c0-0.8-1.6-1.1-1.6-0.1s0,1.8,0,2.7c-0.5,0-1,0.1-1.5,0.2v-2.4c0-1-1.6-1.1-1.6-0.1s0,2,0,2.9
		c-3.6,1.2-6.5,3.6-4.2,7c1,1.3,2.5,2.1,4.2,2.1v7c-1.1-0.1-2.2-0.2-3.2-0.4s-1.1,1.4-0.1,1.6c1.1,0.2,2.2,0.3,3.4,0.3v3.2
		c0,1.1,1.6,1.1,1.6,0.1s0-2.2,0-3.3h1.6c0,1.6,0,3.2,0.1,4.9c0,1,1.6,1.1,1.6,0.1c0-1.7,0-3.4-0.1-5.1
		C345.3,306.2,348.4,304.5,347.5,300.4z M335.9,296.6c-2.4-0.3-2.5-2-0.4-5c0.4-0.2,0.8-0.5,1.3-0.6v6
		C336.4,296.8,336.1,296.7,335.9,296.6L335.9,296.6z M338.3,290.3c0.5-0.1,1-0.2,1.5-0.3v6.9c-0.5,0-1,0.1-1.5,0.1
		C338.3,294.8,338.3,292.5,338.3,290.3L338.3,290.3z M338.4,305.5v-7l1.5-0.1c0,2.4,0.1,4.7,0.1,7.1
		C339.5,305.5,338.9,305.5,338.4,305.5L338.4,305.5z M341.6,305.3c0-2.3-0.1-4.6-0.1-7h0.5c2.4,0.2,3.5,0.6,3.4,3.1
		S344,304.8,341.6,305.3L341.6,305.3z"></path><path class="st3" d="M397.8,217.3c0,0,2.2-4.2,5.3-2.6s5,4.2,9.1,2.6s6.8-10.2,9.5-9s4.5,3.5,3.2,7.9s-0.7,5.3,1.1,5.9
		s-4.8,7-10,5.6S397.8,217.3,397.8,217.3z"></path><path class="st12" d="M402.5,230.7c0,0-13.6,14.5-10.5,29.9s38.1,16.7,43.1,4.8s0.3-28.2-7.4-33.8c0,0,6.4-6.8,3.7-11.3
		s-6.9,3.8-9.2,2.6s5-15-3-15.5s-5.9,14.2-9.2,13.4s-9.5-7.6-12.2-3.6S404.4,226.2,402.5,230.7z"></path><path class="st3" d="M427.7,231.7c0,0,6.4-6.8,3.7-11.3c-0.4-0.9-1.3-1.5-2.3-1.4c2,3.5-1.7,7.2-4.2,9.8c-1.2,1-2.2,2.1-3.2,3.2
		c-2.1,3.5,0.2,6.3,2.4,9c2.4,2.8,4.1,6.2,5,9.8c2.5,10.2-2.5,18.9-10.4,22.5c7.6-0.5,14.4-3.1,16.4-7.8
		C440.1,253.7,435.4,237.4,427.7,231.7z"></path><path class="st9" d="M426.1,229c-7.4,1.5-15.1,0.9-22.2-1.7c-2.5-0.9-3.6,3.1-1.1,4c7.8,2.9,16.3,3.5,24.4,1.7
		C429.9,232.5,428.8,228.5,426.1,229z"></path><path class="st6" d="M423.9,253.2c-0.5-2.4-2.8-3.4-5-3.7c-0.3,0-0.7,0-1,0v-6.8c0.5,0.1,1.1,0.2,1.6,0.3c1,0.3,1.5-1.2,0.5-1.5
		c-0.7-0.2-1.4-0.3-2.1-0.3v-2.5c0-0.8-1.6-1.1-1.6-0.1s0,1.8,0,2.7c-0.5,0-1,0.1-1.5,0.2v-2.4c0-1-1.6-1.1-1.6-0.1s0,2,0,2.9
		c-3.6,1.2-6.6,3.6-4.2,7c1,1.3,2.5,2.1,4.2,2.1v7c-1.1-0.1-2.2-0.2-3.2-0.4s-1.1,1.4-0.1,1.6c1.1,0.2,2.2,0.3,3.4,0.3v3.3
		c0,1.1,1.6,1.1,1.6,0.1s0-2.2,0-3.3h1.6c0,1.6,0,3.2,0.1,4.9c0,1,1.6,1.1,1.6,0.1c0-1.7,0-3.4-0.1-5.1
		C421.7,259,424.8,257.4,423.9,253.2z M412.3,249.3c-2.4-0.3-2.5-2-0.4-5c0.4-0.2,0.8-0.5,1.3-0.6v6
		C412.8,249.6,412.6,249.5,412.3,249.3L412.3,249.3z M414.7,243.1c0.5-0.1,1-0.2,1.5-0.3v6.9c-0.5,0-1,0.1-1.5,0.1
		C414.8,247.6,414.7,245.3,414.7,243.1L414.7,243.1z M414.8,258.3v-7l1.5-0.1c0,2.4,0.1,4.7,0.1,7.1
		C415.9,258.3,415.3,258.3,414.8,258.3L414.8,258.3z M418,258.1c0-2.3-0.1-4.6-0.1-7h0.5c2.4,0.2,3.5,0.6,3.4,3.1
		S420.4,257.6,418,258.1L418,258.1z"></path></g><g id="Coin"><path class="st3" d="M224.4,118c4.6,0.2,9.1,1.3,13.3,3.2c6.7,3.1-13.3,8.6-13.3,8.6"></path><ellipse class="st3" transform="matrix(0.2905 -0.9569 0.9569 0.2905 22.9631 312.5266)" cx="222.2" cy="140.8" rx="23" ry="20.8"></ellipse><ellipse class="st12" transform="matrix(0.2905 -0.9569 0.9569 0.2905 26.0528 319.4515)" cx="228.5" cy="142.2" rx="23" ry="20.8"></ellipse><path class="st9" d="M227.4,162.9c-1.9,0-3.9-0.4-5.7-1c-9.8-3.4-14.8-15.1-11.1-26l0,0c1.8-5.5,5.7-10,10.9-12.6
		c4.3-2.1,9.2-2.5,13.8-0.9c9.8,3.4,14.8,15.1,11.1,26c-1.8,5.5-5.7,10-10.9,12.6C232.9,162.2,230.2,162.9,227.4,162.9z
		 M211.9,136.4c-3.5,10.1,1.1,21,10.2,24.2c4.2,1.4,8.7,1.1,12.7-0.9c4.8-2.4,8.5-6.6,10.2-11.8c3.5-10.1-1.1-21-10.2-24.2
		c-4.2-1.4-8.7-1.1-12.7,0.9C217.3,127,213.6,131.3,211.9,136.4L211.9,136.4z"></path><path class="st9" d="M237,143.9c-1.2-2.5-3.9-3.6-6.4-4c-0.1-2.3-0.1-4.5-0.2-6.8c0.6,0.1,1.2,0.2,1.7,0.4c1.7,0.6,2.4-2.1,0.7-2.7
		c-0.8-0.3-1.7-0.4-2.6-0.5c0-1.2-0.1-2.5-0.2-3.8c-0.1-1.8-2.9-1.8-2.8,0c0.1,1.3,0.1,2.7,0.2,4c-4,0.8-7.7,3.7-6.9,8.1
		c0.6,3.3,3.7,3.6,6.5,3.8h0.8c0,2.1,0.1,4.3,0.1,6.4c-1.2-0.2-2.4-0.6-3.6-1c-1.6-0.6-2.4,2.2-0.7,2.8c1.4,0.5,2.9,0.9,4.4,1.1v2.2
		c0,0.8,0.6,1.4,1.4,1.4c0.8,0,1.4-0.6,1.4-1.4V152c1.5,0,3-0.4,4.3-1.2C237.4,149.4,238.3,146.4,237,143.9z M225.8,139.7
		c-2.5-1.1-2.8-3.2-0.8-4.9c0.8-0.7,1.7-1.2,2.6-1.4c0.1,2.2,0.2,4.3,0.2,6.5C227.1,139.9,226.4,139.9,225.8,139.7L225.8,139.7z
		 M233.7,148.4c-0.9,0.6-1.9,0.9-2.9,0.9c0-2.1,0-4.3-0.1-6.4c0.3,0,0.5,0.1,0.7,0.2C233.4,143.6,236.6,146.2,233.7,148.4
		L233.7,148.4z"></path><path class="st9" d="M203,109.7v4.2c0,1.2,0.9,2.1,2.1,2.1c1.2,0,2.1-0.9,2.1-2.1c0,0,0,0,0,0v-4.2c0-1.2-0.9-2.1-2.1-2.1
		C203.9,107.6,203,108.6,203,109.7C203,109.7,203,109.7,203,109.7z"></path><path class="st9" d="M218,93.4v15.1c0,1.2,0.9,2.1,2.1,2.1c1.2,0,2.1-0.9,2.1-2.1c0,0,0,0,0,0V93.4c0-1.2-0.9-2.1-2.1-2.1
		C218.9,91.3,218,92.3,218,93.4C218,93.4,218,93.4,218,93.4z"></path><path class="st9" d="M232.9,103.8v8c0,1.2,0.9,2.1,2.1,2.1c1.2,0,2.1-0.9,2.1-2.1c0,0,0,0,0,0v-8c0-1.2-0.9-2.1-2.1-2.1
		C233.9,101.7,232.9,102.7,232.9,103.8C232.9,103.8,232.9,103.8,232.9,103.8z"></path></g></svg>